<svg width="14" height="14" viewBox="0 0 14 14" fill="none" xmlns="http://www.w3.org/2000/svg">
<path d="M6.19797 1.58108L6.84307 0.935988C7.13629 0.672086 7.57613 0.672086 7.84003 0.935988L13.5579 6.62454C13.8218 6.91776 13.8218 7.3576 13.5579 7.6215L7.84003 13.3394C7.57613 13.6033 7.13629 13.6033 6.84307 13.3394L6.19797 12.6943C5.93407 12.4011 5.93407 11.9612 6.19797 11.668L9.74599 8.29592H1.33045C0.919933 8.29592 0.626709 8.0027 0.626709 7.59218V6.65386C0.626709 6.27267 0.919933 5.95012 1.33045 5.95012H9.74599L6.19797 2.60737C5.93407 2.31414 5.90475 1.87431 6.19797 1.58108Z" fill="#FFC107"/>
</svg>
