<svg width="40" height="29" viewBox="0 0 40 29" fill="none" xmlns="http://www.w3.org/2000/svg">
<path d="M34.2495 4.71798H25.4286V7.17111H34.2843L34.2495 4.71798ZM32.3879 21.5941C31.7187 22.0375 30.9285 22.2624 30.1261 22.2379C29.595 22.2932 29.0582 22.2384 28.5493 22.0767C28.0403 21.915 27.5703 21.6501 27.1685 21.2984C26.4256 20.4561 26.0388 19.3582 26.0898 18.2363H37.6073C37.6903 17.0681 37.5905 15.8941 37.3115 14.7567C37.0416 13.6746 36.5694 12.6533 35.9197 11.7468C35.2657 10.8675 34.4211 10.1478 33.4492 9.64164C32.3678 9.10846 31.1751 8.8401 29.9695 8.85872C28.8357 8.85042 27.7118 9.0693 26.6639 9.50245C25.7044 9.90694 24.835 10.4984 24.1064 11.2423C23.3798 12.001 22.8172 12.9012 22.4536 13.8868C22.0633 14.9508 21.8688 16.0766 21.8794 17.2098C21.8615 18.3591 22.0501 19.5023 22.4362 20.585C22.7641 21.5655 23.2846 22.4705 23.9672 23.2469C24.6734 24.0093 25.5413 24.6037 26.5073 24.9868C27.5844 25.3971 28.7301 25.5979 29.8826 25.5783C31.4996 25.6287 33.0961 25.2054 34.4757 24.3604C35.8691 23.3702 36.8723 21.9239 37.3115 20.2719H33.4666C33.2607 20.8184 32.8819 21.2827 32.3879 21.5941ZM26.4203 14.4261C26.5557 13.9923 26.7805 13.5918 27.0802 13.2501C27.3798 12.9085 27.7477 12.6335 28.1601 12.4427C28.7064 12.1969 29.3012 12.0779 29.9 12.0948C30.3325 12.0578 30.7679 12.1149 31.1763 12.262C31.5848 12.4092 31.9565 12.6429 32.2661 12.9473C32.8573 13.6709 33.2366 14.5441 33.3622 15.47H26.142C26.1701 15.1164 26.2342 14.7667 26.3333 14.4261H26.4203ZM17.2167 13.591C18.1022 13.2223 18.8717 12.6212 19.4437 11.8512C19.9695 11.0335 20.2307 10.0737 20.1918 9.10229C20.2259 8.21645 20.0532 7.33484 19.6873 6.52738C19.3799 5.82783 18.8864 5.22604 18.2606 4.78757C17.5972 4.33169 16.8437 4.0232 16.0511 3.88287C15.113 3.68612 14.1562 3.59277 13.1978 3.6045H2.81112V25.4913H13.424C14.3925 25.492 15.3572 25.3692 16.2946 25.1259C17.1832 24.8961 18.0251 24.5134 18.7826 23.9951C19.5163 23.4865 20.1138 22.8054 20.5224 22.0117C20.9746 21.124 21.196 20.1368 21.1661 19.141C21.1991 17.907 20.8529 16.6926 20.1744 15.6614C19.4447 14.6243 18.3624 13.8884 17.1298 13.591H17.2167ZM7.63039 7.34509H12.1365C12.5505 7.34458 12.9637 7.3795 13.3718 7.44948C13.7475 7.50515 14.1083 7.63528 14.433 7.83223C14.7468 8.00972 15.0011 8.27607 15.1638 8.59775C15.3653 8.9835 15.4613 9.41563 15.4421 9.85041C15.4746 10.2249 15.4173 10.6017 15.2751 10.9496C15.1329 11.2976 14.9098 11.6066 14.6244 11.8512C14.0018 12.2792 13.2567 12.493 12.5019 12.4601H7.63039V7.34509ZM16.0511 20.2893C15.8723 20.6439 15.602 20.9442 15.2682 21.1592C14.9207 21.3753 14.5379 21.5284 14.1373 21.6115C13.692 21.7112 13.2365 21.7579 12.7802 21.7507H7.5608V15.7484H12.7802C13.6759 15.7091 14.5604 15.9593 15.303 16.4617C15.6384 16.7627 15.8983 17.1385 16.0615 17.5587C16.2247 17.9788 16.2867 18.4315 16.2425 18.88C16.2895 19.3583 16.2239 19.8409 16.0511 20.2893Z" fill="white"/>
</svg>
