<svg width="38" height="41" viewBox="0 0 38 41" fill="none" xmlns="http://www.w3.org/2000/svg">
<path fill-rule="evenodd" clip-rule="evenodd" d="M18.9841 5.14453C14.5487 5.14453 10.9531 8.74014 10.9531 13.1755V14.033C10.1375 14.1681 9.51562 14.8768 9.51562 15.7307V17.7219C9.51562 18.5919 10.1612 19.3111 10.9994 19.4266C11.3029 22.2556 13.0755 24.6448 15.5391 25.8165V28.4491H14.9662C9.26355 28.4491 4.64062 33.072 4.64062 38.7747V40.0301H33.3228V38.7747C33.3228 33.072 28.6999 28.4491 22.9972 28.4491H22.4228V25.8195C24.8902 24.6487 26.6657 22.2571 26.9691 19.4251C27.8019 19.3048 28.4419 18.5881 28.4419 17.7219V15.7307C28.4419 14.8806 27.8254 14.1744 27.0151 14.0348V13.1755C27.0151 8.74014 23.4195 5.14453 18.9841 5.14453Z" fill="#D0C6AC"/>
<mask id="mask0_4157_5867" style="mask-type:luminance" maskUnits="userSpaceOnUse" x="4" y="5" width="30" height="36">
<path fill-rule="evenodd" clip-rule="evenodd" d="M18.9841 5.14453C14.5487 5.14453 10.9531 8.74014 10.9531 13.1755V14.033C10.1375 14.1681 9.51562 14.8768 9.51562 15.7307V17.7219C9.51562 18.5919 10.1612 19.3111 10.9994 19.4266C11.3029 22.2556 13.0755 24.6448 15.5391 25.8165V28.4491H14.9662C9.26355 28.4491 4.64062 33.072 4.64062 38.7747V40.0301H33.3228V38.7747C33.3228 33.072 28.6999 28.4491 22.9972 28.4491H22.4228V25.8195C24.8902 24.6487 26.6657 22.2571 26.9691 19.4251C27.8019 19.3048 28.4419 18.5881 28.4419 17.7219V15.7307C28.4419 14.8806 27.8254 14.1744 27.0151 14.0348V13.1755C27.0151 8.74014 23.4195 5.14453 18.9841 5.14453Z" fill="white"/>
</mask>
<g mask="url(#mask0_4157_5867)">
<rect x="0.0546875" y="5.14453" width="37.8605" height="34.886" fill="#D08B5B"/>
<path fill-rule="evenodd" clip-rule="evenodd" d="M10.9531 18.5598V19.7024C10.9531 24.1378 14.5487 27.7334 18.9841 27.7334C23.4195 27.7334 27.0151 24.1378 27.0151 19.7024V18.5598C27.0151 22.9952 23.4195 26.5908 18.9841 26.5908C14.5487 26.5908 10.9531 22.9952 10.9531 18.5598Z" fill="black" fill-opacity="0.1"/>
</g>
<path fill-rule="evenodd" clip-rule="evenodd" d="M22.8536 28.8849C22.8536 30.859 21.12 32.4593 18.9815 32.4593C16.843 32.4593 15.1094 30.859 15.1094 28.8849C15.1094 28.7401 15.1187 28.5973 15.1368 28.457H14.9662C9.26355 28.457 4.64062 33.08 4.64062 38.7826V40.0306H33.3228V38.7826C33.3228 33.08 28.6999 28.457 22.9972 28.457H22.8261C22.8442 28.5973 22.8536 28.7401 22.8536 28.8849Z" fill="#E6E6E6"/>
<mask id="mask1_4157_5867" style="mask-type:luminance" maskUnits="userSpaceOnUse" x="4" y="28" width="30" height="13">
<path fill-rule="evenodd" clip-rule="evenodd" d="M22.8458 28.8849C22.8458 30.859 21.1122 32.4593 18.9737 32.4593C16.8352 32.4593 15.1016 30.859 15.1016 28.8849C15.1016 28.7401 15.1109 28.5973 15.129 28.457H14.9584C9.25573 28.457 4.63281 33.08 4.63281 38.7826V40.0306H33.315V38.7826C33.315 33.08 28.6921 28.457 22.9894 28.457H22.8183C22.8364 28.5973 22.8458 28.7401 22.8458 28.8849Z" fill="white"/>
</mask>
<g mask="url(#mask1_4157_5867)">
<rect x="0.046875" y="24.3027" width="37.8605" height="15.7273" fill="#262E33"/>
</g>
<path fill-rule="evenodd" clip-rule="evenodd" d="M23.5126 40.0301H33.315V38.7821C33.315 33.2835 29.017 28.7887 23.5973 28.4741C24.0327 30.1322 24.2815 32.0513 24.2815 34.0967C24.2815 36.2711 24.0003 38.303 23.5126 40.0301ZM14.4987 28.4666C14.062 30.1263 13.8125 32.0482 13.8125 34.0967C13.8125 36.2711 14.0937 38.303 14.5814 40.0301H4.63281V38.7821C4.63281 33.2335 9.00936 28.707 14.4987 28.4666Z" fill="#3A4C5A"/>
<path fill-rule="evenodd" clip-rule="evenodd" d="M26.0078 36.5993L27.3789 35.5741C27.5856 35.4195 27.87 35.422 28.0739 35.5802L29.0194 36.3133L26.0078 36.5993Z" fill="#E6E6E6"/>
<path fill-rule="evenodd" clip-rule="evenodd" d="M14.5306 28.3066C13.6701 32.4529 15.2476 40.0306 15.2476 40.0306H12.9531L10.9453 34.8835L11.8058 33.5967L10.9453 32.7389L13.6701 28.4496C13.6701 28.4496 14.1063 28.3143 14.5306 28.3066Z" fill="#2F4351"/>
<path fill-rule="evenodd" clip-rule="evenodd" d="M23.4225 28.3066C24.283 32.4529 22.7055 40.0306 22.7055 40.0306H25.0001L27.0078 34.8835L26.1473 33.5967L27.0078 32.7389L24.283 28.4496C24.283 28.4496 23.8468 28.3143 23.4225 28.3066Z" fill="#2F4351"/>
<path fill-rule="evenodd" clip-rule="evenodd" d="M15.5391 27.3775C14.5629 28.035 13.9531 28.9697 13.9531 30.0066C13.9531 31.0656 14.5891 32.0179 15.6018 32.6773L16.4553 32.007L17.1077 32.0541L16.9652 31.6065L16.9792 31.5956C16.1028 31.1464 15.5312 30.409 15.5312 29.5756C15.5312 29.519 15.5339 29.4629 15.5391 29.4073V27.3775ZM22.415 29.5781C22.4138 30.4095 21.844 31.145 20.9704 31.5938L20.9876 31.6073L20.8454 32.0541L21.4966 32.0071L22.3469 32.6749C23.3574 32.0155 23.9919 31.0643 23.9919 30.0066C23.9919 28.9756 23.3891 28.0458 22.4228 27.3889V29.5781H22.415Z" fill="#F2F2F2"/>
<path fill-rule="evenodd" clip-rule="evenodd" d="M16.9766 21.3027C16.9766 22.4082 17.8755 23.3044 18.9843 23.3044C20.0932 23.3044 20.9921 22.4082 20.9921 21.3027" fill="black" fill-opacity="0.7"/>
<rect width="16.062" height="6.29092" transform="translate(10.9531 12.8691)" fill="#D08B5B"/>
<path fill-rule="evenodd" clip-rule="evenodd" d="M13.2652 16.8087C13.53 17.3518 14.1262 17.7305 14.8194 17.7305C15.51 17.7305 16.1045 17.3545 16.3707 16.8144C16.4498 16.654 16.3373 16.5227 16.2238 16.62C15.8723 16.9213 15.3731 17.1094 14.8194 17.1094C14.283 17.1094 13.7977 16.9328 13.4483 16.6479C13.3206 16.5437 13.1877 16.6498 13.2652 16.8087Z" fill="black" fill-opacity="0.6"/>
<path fill-rule="evenodd" clip-rule="evenodd" d="M21.5855 16.8087C21.8503 17.3518 22.4465 17.7305 23.1397 17.7305C23.8304 17.7305 24.4249 17.3545 24.6911 16.8144C24.7701 16.654 24.6576 16.5227 24.5441 16.62C24.1926 16.9213 23.6934 17.1094 23.1397 17.1094C22.6033 17.1094 22.118 16.9328 21.7687 16.6479C21.6409 16.5437 21.508 16.6498 21.5855 16.8087Z" fill="black" fill-opacity="0.6"/>
<path d="M13.2003 14.176C13.7618 13.3884 15.301 12.9467 16.6268 13.2714C16.7806 13.309 16.936 13.2152 16.9738 13.0618C17.0115 12.9085 16.9175 12.7536 16.7636 12.716C15.2239 12.339 13.4415 12.8504 12.7327 13.8447C12.641 13.9734 12.6713 14.152 12.8004 14.2434C12.9295 14.3349 13.1086 14.3047 13.2003 14.176Z" fill="black" fill-opacity="0.6"/>
<path d="M24.784 14.176C24.2226 13.3884 22.6834 12.9467 21.3576 13.2714C21.2037 13.309 21.0484 13.2152 21.0106 13.0618C20.9728 12.9085 21.0669 12.7536 21.2208 12.716C22.7605 12.339 24.5429 12.8504 25.2516 13.8447C25.3434 13.9734 25.3131 14.152 25.184 14.2434C25.0549 14.3349 24.8758 14.3047 24.784 14.176Z" fill="black" fill-opacity="0.6"/>
<mask id="mask2_4157_5867" style="mask-type:luminance" maskUnits="userSpaceOnUse" x="0" y="0" width="38" height="41">
<rect x="0.0546875" width="37.8605" height="40.0331" fill="white"/>
</mask>
<g mask="url(#mask2_4157_5867)">
<path fill-rule="evenodd" clip-rule="evenodd" d="M19.0426 23.7118C17.4114 23.7658 16.6837 24.5525 16.1357 23.753C15.7245 23.1529 15.8965 22.1438 16.2809 21.576C16.8277 20.7679 17.5695 21.1588 18.3989 21.0666C18.6245 21.0415 18.851 20.9783 19.0426 20.875C19.2341 20.9783 19.4606 21.0415 19.6862 21.0666C20.5157 21.1588 21.2574 20.7679 21.8043 21.576C22.1886 22.1438 22.3607 23.1529 21.9494 23.753C21.4014 24.5525 20.6738 23.6577 19.0426 23.7118ZM26.9685 14.0117C26.4833 16.0241 26.2603 18.077 25.9084 20.1126C25.8351 20.537 25.7548 20.9598 25.6696 21.382C25.6517 21.4707 25.6341 21.8 25.5475 21.8417C25.2852 21.9681 24.7506 21.2958 24.6076 21.1441C24.2486 20.7629 23.8927 20.3783 23.4555 20.0792C22.572 19.4748 21.5376 19.1175 20.4614 19.0327C20.011 18.9972 19.4021 19.0591 18.9777 19.3176C18.5533 19.0591 17.9444 18.9972 17.494 19.0327C16.4177 19.1175 15.3834 19.4748 14.4999 20.0792C14.0627 20.3783 13.7068 20.7629 13.3477 21.1441C13.2048 21.2958 12.6702 21.9681 12.4079 21.8417C12.3213 21.8 12.3037 21.4707 12.2858 21.382C12.2006 20.9598 12.1203 20.537 12.047 20.1126C11.6952 18.077 11.4722 16.0241 10.9869 14.0117C10.8457 14.0117 10.7218 16.6922 10.7061 16.9419C10.642 17.9563 10.5671 18.948 10.6628 19.9632C10.8277 21.7145 10.9997 23.9105 12.3223 25.2478C13.5173 26.4562 15.2524 26.7089 16.7489 27.4716C16.9416 27.5698 17.1972 27.6911 17.4728 27.7904C17.7631 28.0139 18.339 28.1663 19.0024 28.1663C19.6982 28.1663 20.2977 27.9986 20.5724 27.7571C20.8135 27.6648 21.035 27.559 21.2065 27.4716C22.7029 26.7087 24.4381 26.4562 25.6331 25.2478C26.9557 23.9105 27.1277 21.7145 27.2927 19.9632C27.3883 18.948 27.3134 17.9563 27.2494 16.9419C27.2336 16.6922 27.1097 14.0117 26.9685 14.0117Z" fill="#252E32"/>
<mask id="mask3_4157_5867" style="mask-type:luminance" maskUnits="userSpaceOnUse" x="10" y="14" width="18" height="15">
<path fill-rule="evenodd" clip-rule="evenodd" d="M19.0426 23.7118C17.4114 23.7658 16.6837 24.5525 16.1357 23.753C15.7245 23.1529 15.8965 22.1438 16.2809 21.576C16.8277 20.7679 17.5695 21.1588 18.3989 21.0666C18.6245 21.0415 18.851 20.9783 19.0426 20.875C19.2341 20.9783 19.4606 21.0415 19.6862 21.0666C20.5157 21.1588 21.2574 20.7679 21.8043 21.576C22.1886 22.1438 22.3607 23.1529 21.9494 23.753C21.4014 24.5525 20.6738 23.6577 19.0426 23.7118ZM26.9685 14.0117C26.4833 16.0241 26.2603 18.077 25.9084 20.1126C25.8351 20.537 25.7548 20.9598 25.6696 21.382C25.6517 21.4707 25.6341 21.8 25.5475 21.8417C25.2852 21.9681 24.7506 21.2958 24.6076 21.1441C24.2486 20.7629 23.8927 20.3783 23.4555 20.0792C22.572 19.4748 21.5376 19.1175 20.4614 19.0327C20.011 18.9972 19.4021 19.0591 18.9777 19.3176C18.5533 19.0591 17.9444 18.9972 17.494 19.0327C16.4177 19.1175 15.3834 19.4748 14.4999 20.0792C14.0627 20.3783 13.7068 20.7629 13.3477 21.1441C13.2048 21.2958 12.6702 21.9681 12.4079 21.8417C12.3213 21.8 12.3037 21.4707 12.2858 21.382C12.2006 20.9598 12.1203 20.537 12.047 20.1126C11.6952 18.077 11.4722 16.0241 10.9869 14.0117C10.8457 14.0117 10.7218 16.6922 10.7061 16.9419C10.642 17.9563 10.5671 18.948 10.6628 19.9632C10.8277 21.7145 10.9997 23.9105 12.3223 25.2478C13.5173 26.4562 15.2524 26.7089 16.7489 27.4716C16.9416 27.5698 17.1972 27.6911 17.4728 27.7904C17.7631 28.0139 18.339 28.1663 19.0024 28.1663C19.6982 28.1663 20.2977 27.9986 20.5724 27.7571C20.8135 27.6648 21.035 27.559 21.2065 27.4716C22.7029 26.7087 24.4381 26.4562 25.6331 25.2478C26.9557 23.9105 27.1277 21.7145 27.2927 19.9632C27.3883 18.948 27.3134 17.9563 27.2494 16.9419C27.2336 16.6922 27.1097 14.0117 26.9685 14.0117Z" fill="white"/>
</mask>
<g mask="url(#mask3_4157_5867)">
<rect x="7.07812" y="10.2949" width="23.8062" height="21.7323" fill="#724133"/>
</g>
<path fill-rule="evenodd" clip-rule="evenodd" d="M10.7429 13.9428C11.6136 11.8536 14.9731 10.2969 18.9847 10.2969C22.9963 10.2969 26.3558 11.8536 27.2265 13.9428C27.37 13.5983 27.4459 13.2394 27.4459 12.8705C27.4459 10.2647 23.6577 8.15234 18.9847 8.15234C14.3117 8.15234 10.5234 10.2647 10.5234 12.8705C10.5234 13.2394 10.5993 13.5983 10.7429 13.9428Z" fill="#EDECE3"/>
<path fill-rule="evenodd" clip-rule="evenodd" d="M6.93752 13.4887C6.92796 19.0898 11.0964 20.1622 11.0964 20.1622C10.3159 13.0775 14.4717 10.8472 17.7692 9.07757C18.191 8.85121 18.5987 8.63239 18.9803 8.4119C19.3633 8.63349 19.7729 8.85339 20.1968 9.08096C23.492 10.8501 27.6493 13.082 26.8723 20.1622C26.8723 20.1622 31.0407 18.9527 31.0312 13.4887C31.0195 6.74376 23.5524 0.431641 19.2715 0.431641C19.1747 0.431641 19.0785 0.435888 18.9832 0.444263C18.8886 0.435888 18.7932 0.431641 18.6972 0.431641C14.4054 0.431641 6.94903 6.74376 6.93752 13.4887Z" fill="#124C74"/>
<mask id="mask4_4157_5867" style="mask-type:luminance" maskUnits="userSpaceOnUse" x="6" y="0" width="26" height="21">
<path fill-rule="evenodd" clip-rule="evenodd" d="M6.93752 13.4887C6.92796 19.0898 11.0964 20.1622 11.0964 20.1622C10.3159 13.0775 14.4717 10.8472 17.7692 9.07757C18.191 8.85121 18.5987 8.63239 18.9803 8.4119C19.3633 8.63349 19.7729 8.85339 20.1968 9.08096C23.492 10.8501 27.6493 13.082 26.8723 20.1622C26.8723 20.1622 31.0407 18.9527 31.0312 13.4887C31.0195 6.74376 23.5524 0.431641 19.2715 0.431641C19.1747 0.431641 19.0785 0.435888 18.9832 0.444263C18.8886 0.435888 18.7932 0.431641 18.6972 0.431641C14.4054 0.431641 6.94903 6.74376 6.93752 13.4887Z" fill="white"/>
</mask>
<g mask="url(#mask4_4157_5867)">
<rect x="0.0546875" y="0.00195312" width="37.8051" height="39.9746" fill="#25557C"/>
</g>
<path fill-rule="evenodd" clip-rule="evenodd" d="M11.0009 18.5442C11.0225 13.1319 14.7546 11.2452 17.7692 9.72109C19.3474 8.9232 20.729 8.22472 21.2786 7.17182C21.8704 6.13555 22.0516 5.17832 21.9448 4.35938C21.8724 4.98361 21.6614 5.65995 21.2786 6.37138C20.729 7.48907 19.3474 8.23054 17.7692 9.07753C14.737 10.7048 10.9791 12.7216 11.0009 18.5442ZM11.0963 20.1622C11.0714 20.1557 7.04015 19.1019 6.93942 13.7144C6.93825 13.7684 6.93761 13.8224 6.93752 13.8765C6.92796 19.1529 11.0964 20.1632 11.0964 20.1632C11.0964 20.1628 11.0964 20.1625 11.0963 20.1622Z" fill="black" fill-opacity="0.16"/>
</g>
</svg>
