<svg width="65" height="70" viewBox="0 0 65 70" fill="none" xmlns="http://www.w3.org/2000/svg">
<path d="M36.8544 53.8139L27.7344 48.8539C29.2944 48.6339 30.8044 48.1739 32.2344 47.5039L41.3544 52.4639C39.9344 53.1239 38.4244 53.5939 36.8544 53.8139Z" fill="#A56A0B"/>
<path d="M41.3544 52.4627L32.2344 47.5027C33.1044 47.0927 33.9444 46.6127 34.7444 46.0527L43.8644 51.0127C43.0644 51.5627 42.2244 52.0527 41.3544 52.4627Z" fill="#A0670A"/>
<path d="M43.8544 51.0142L34.7344 46.0542C35.3844 45.6042 36.0044 45.1142 36.6044 44.5742L45.7244 49.5342C45.1344 50.0742 44.5144 50.5642 43.8544 51.0142Z" fill="#9B640A"/>
<path d="M45.7216 49.5344L36.6016 44.5744C37.1516 44.0744 37.6815 43.5444 38.1815 42.9844L47.3016 47.9444C46.8016 48.5044 46.2816 49.0344 45.7216 49.5344Z" fill="#96610A"/>
<path d="M47.3075 47.9429L38.1875 42.9829C38.6775 42.4229 39.1475 41.8329 39.5775 41.2129L48.6975 46.1729C48.2675 46.7929 47.8075 47.3829 47.3075 47.9429Z" fill="#915D09"/>
<path d="M48.6981 46.1719L39.5781 41.2119C40.0381 40.5619 40.4581 39.8719 40.8381 39.1719L49.9581 44.1319C49.5781 44.8419 49.1581 45.5219 48.6981 46.1719Z" fill="#8C5A09"/>
<path d="M49.9559 44.1342L40.8359 39.1742C41.2859 38.3342 41.6759 37.4742 42.0059 36.5742L51.1259 41.5342C50.8059 42.4242 50.4059 43.2942 49.9559 44.1342Z" fill="#875709"/>
<path d="M51.1234 41.5331L42.0034 36.5731C42.7634 34.5031 43.1834 32.2831 43.1934 30.0231C43.2034 24.1031 40.3434 19.3031 36.0234 16.9531L45.1434 21.9131C49.4534 24.2631 52.3234 29.0631 52.3134 34.9831C52.3134 37.2431 51.8934 39.4531 51.1234 41.5331Z" fill="#825408"/>
<path d="M51.1156 41.5331L41.9956 36.5731C42.7556 34.5031 43.1756 32.2831 43.1856 30.0231C43.1956 24.1031 40.3356 19.3031 36.0156 16.9531L45.1356 21.9131C49.4456 24.2631 52.3156 29.0631 52.3056 34.9831C52.3056 37.2431 51.8856 39.4531 51.1156 41.5331Z" fill="#825408"/>
<path d="M36.8622 51.0431L27.7422 46.0831C29.0422 45.9031 30.3022 45.5131 31.4822 44.9531L40.6022 49.9131C39.4222 50.4731 38.1622 50.8631 36.8622 51.0431Z" fill="#A8A8A8"/>
<path d="M40.6044 49.922L31.4844 44.962C32.2144 44.622 32.9044 44.222 33.5744 43.752L42.6944 48.712C42.0344 49.172 41.3344 49.572 40.6044 49.922Z" fill="#A3A3A3"/>
<path d="M42.6903 48.7134L33.5703 43.7534C34.1103 43.3734 34.6303 42.9634 35.1303 42.5234L44.2503 47.4834C43.7603 47.9234 43.2303 48.3334 42.6903 48.7134Z" fill="#9E9E9E"/>
<path d="M44.2528 47.4814L35.1328 42.5214C35.5928 42.1014 36.0328 41.6614 36.4528 41.1914L45.5728 46.1514C45.1528 46.6214 44.7128 47.0614 44.2528 47.4814Z" fill="#999999"/>
<path d="M45.5731 46.1509L36.4531 41.1909C36.8631 40.7209 37.2531 40.2309 37.6131 39.7109L46.7331 44.6709C46.3731 45.1909 45.9831 45.6809 45.5731 46.1509Z" fill="#949494"/>
<path d="M46.7294 44.672L37.6094 39.712C37.9894 39.162 38.3394 38.602 38.6594 38.002L47.7794 42.962C47.4594 43.562 47.1094 44.132 46.7294 44.672Z" fill="#8F8F8F"/>
<path d="M47.7841 42.9718L38.6641 38.0118C39.0341 37.3118 39.3641 36.5918 39.6441 35.8418L48.7641 40.8018C48.4841 41.5418 48.1641 42.2718 47.7841 42.9718Z" fill="#8A8A8A"/>
<path d="M48.7663 40.8022L39.6463 35.8422C40.2763 34.1122 40.6363 32.2722 40.6363 30.3822C40.6463 25.4522 38.2562 21.4422 34.6562 19.4922L43.7763 24.4522C47.3763 26.4122 49.7663 30.4122 49.7563 35.3422C49.7563 37.2222 49.3963 39.0722 48.7663 40.8022Z" fill="#858585"/>
<path d="M40.5575 37.9027L31.4375 32.9427L35.1275 28.5527L44.2475 33.5127L40.5575 37.9027Z" fill="#9F660A"/>
<path d="M41.4175 43.2514L32.2975 38.2914L31.4375 32.9414L40.5575 37.9014L41.4175 43.2514Z" fill="#7D5108"/>
<path d="M36.8778 41.3116L27.7578 36.3516L32.2978 38.2916L41.4178 43.2516L36.8778 41.3116Z" fill="#9F660A"/>
<path d="M39.1669 33.4327L30.0469 28.4727L35.1269 28.5527L44.2469 33.5127L39.1669 33.4327Z" fill="#B1B1B1"/>
<path d="M28.62 52.3936L19.5 47.4336C19.66 47.5136 19.81 47.6036 19.97 47.6736L29.09 52.6336C28.93 52.5636 28.77 52.4736 28.62 52.3936Z" fill="#9B640A"/>
<path d="M29.0887 52.6338L19.9688 47.6738C20.7387 48.0538 21.5588 48.3538 22.4088 48.5738L31.5287 53.5338C30.6787 53.3238 29.8587 53.0138 29.0887 52.6338Z" fill="#A0670A"/>
<path d="M31.5262 53.544L22.4062 48.584C24.0662 49.014 25.8562 49.124 27.7262 48.854L36.8463 53.814C34.9763 54.074 33.1862 53.964 31.5262 53.544Z" fill="#A56A0B"/>
<path d="M29.9872 49.8623L20.8672 44.9023C20.9972 44.9723 21.1272 45.0423 21.2572 45.1023L30.3772 50.0623C30.2472 50.0023 30.1172 49.9323 29.9872 49.8623Z" fill="#9E9E9E"/>
<path d="M30.3856 50.0616L21.2656 45.1016C21.9156 45.4216 22.5956 45.6716 23.3056 45.8516L32.4256 50.8116C31.7056 50.6316 31.0256 50.3816 30.3856 50.0616Z" fill="#A3A3A3"/>
<path d="M32.4169 50.8116L23.2969 45.8516C24.6769 46.2116 26.1769 46.3016 27.7369 46.0816L36.8569 51.0416C35.2969 51.2616 33.8069 51.1716 32.4169 50.8116Z" fill="#A8A8A8"/>
<path d="M32.3131 44.5316L23.2031 39.5716L27.7631 36.3516L36.8831 41.3116L32.3131 44.5316Z" fill="#AA6E0B"/>
<path d="M52.2372 5.07249L43.1172 0.112495C44.6272 -0.0975047 46.0772 -0.00751111 47.4172 0.332489L56.5372 5.2925C55.1972 4.9525 53.7472 4.86249 52.2372 5.07249Z" fill="#A56A0B"/>
<path d="M56.5419 5.29204L47.4219 0.332031C48.1119 0.512031 48.7619 0.752035 49.3819 1.06203L58.5019 6.02203C57.8819 5.71203 57.2219 5.47204 56.5419 5.29204Z" fill="#A0670A"/>
<path d="M58.495 6.0225L49.375 1.0625C49.505 1.1225 49.625 1.1925 49.755 1.2625L58.875 6.2225C58.745 6.1525 58.625 6.0825 58.495 6.0225Z" fill="#9B640A"/>
<path d="M32.3131 44.5324L23.2031 39.5724L24.0831 33.9824L33.2031 38.9424L32.3131 44.5324Z" fill="#878787"/>
<path d="M39.1712 33.4325L30.0513 28.4725L27.7812 23.8125L36.9012 28.7725L39.1712 33.4325Z" fill="#7D5108"/>
<path d="M34.6122 34.0725L25.4922 29.1125L27.7822 23.8125L36.9022 28.7725L34.6122 34.0725Z" fill="#939393"/>
<path d="M36.9091 23.2625L27.7891 18.3025C29.3491 18.0825 30.8391 18.1725 32.2191 18.5325L41.3391 23.4925C39.9591 23.1325 38.4691 23.0426 36.9091 23.2625Z" fill="#A56A0B"/>
<path d="M41.3387 23.4913L32.2188 18.5312C32.9287 18.7113 33.6087 18.9712 34.2587 19.2812L43.3788 24.2413C42.7288 23.9213 42.0487 23.6713 41.3387 23.4913Z" fill="#A0670A"/>
<path d="M43.3778 24.2413L34.2578 19.2812C34.3878 19.3513 34.5178 19.4113 34.6478 19.4813L43.7678 24.4413C43.6378 24.3713 43.5078 24.3113 43.3778 24.2413Z" fill="#9B640A"/>
<path d="M29.5184 35.5833L20.3984 30.6233L25.4884 29.1133L34.6084 34.0733L29.5184 35.5833Z" fill="#B5B5B5"/>
<path d="M33.1984 38.9411L24.0784 33.9811L20.3984 30.6211L29.5184 35.5811L33.1984 38.9411Z" fill="#808080"/>
<path d="M29.9907 49.8627L20.8707 44.9027C17.2707 42.9427 14.8807 38.9327 14.8907 34.0027C14.8907 32.1227 15.2407 30.2827 15.8807 28.5527L25.0007 33.5127C24.3707 35.2427 24.0107 37.0827 24.0107 38.9627C24.0007 43.8927 26.3907 47.9027 29.9907 49.8627Z" fill="#825408"/>
<path d="M29.9907 49.8627L20.8707 44.9027C17.2707 42.9427 14.8807 38.9327 14.8907 34.0027C14.8907 32.1227 15.2407 30.2827 15.8807 28.5527L25.0007 33.5127C24.3707 35.2427 24.0107 37.0827 24.0107 38.9627C24.0007 43.8927 26.3907 47.9027 29.9907 49.8627Z" fill="#825408"/>
<path d="M25.0028 33.5128L15.8828 28.5528C16.1528 27.8028 16.4828 27.0828 16.8628 26.3828L25.9828 31.3428C25.6028 32.0428 25.2728 32.7628 25.0028 33.5128Z" fill="#875709"/>
<path d="M25.9794 31.3436L16.8594 26.3836C17.1794 25.7936 17.5294 25.2236 17.9094 24.6836L27.0294 29.6436C26.6494 30.1836 26.2894 30.7536 25.9794 31.3436Z" fill="#8C5A09"/>
<path d="M27.0262 29.6431L17.9062 24.6831C18.2663 24.1731 18.6562 23.6731 19.0662 23.2031L28.1862 28.1631C27.7762 28.6331 27.3862 29.1231 27.0262 29.6431Z" fill="#915D09"/>
<path d="M28.1903 28.163L19.0703 23.203C19.4903 22.733 19.9303 22.293 20.3903 21.873L29.5103 26.833C29.0403 27.253 28.6003 27.693 28.1903 28.163Z" fill="#96610A"/>
<path d="M29.5106 26.8326L20.3906 21.8726C20.8906 21.4226 21.4106 21.0126 21.9506 20.6426L31.0706 25.6026C30.5206 25.9726 30.0006 26.3926 29.5106 26.8326Z" fill="#9B640A"/>
<path d="M31.0731 25.6036L21.9531 20.6436C22.6231 20.1836 23.3231 19.7736 24.0431 19.4336L33.1631 24.3936C32.4331 24.7336 31.7331 25.1436 31.0731 25.6036Z" fill="#A0670A"/>
<path d="M33.1591 24.3927L24.0391 19.4327C25.2291 18.8727 26.4891 18.4827 27.7891 18.3027L36.9091 23.2627C35.6091 23.4527 34.3491 23.8327 33.1591 24.3927Z" fill="#A56A0B"/>
<path d="M36.9078 23.2632C43.9978 22.2632 49.7578 27.6932 49.7478 35.3432C49.7378 43.0032 43.9478 50.0532 36.8578 51.0432C29.7578 52.0432 23.9978 46.6232 24.0078 38.9632C24.0278 31.3132 29.8078 24.2632 36.9078 23.2632ZM41.4178 43.2532L40.5578 37.9032L44.2478 33.5132L39.1578 33.4332L36.8878 28.7732L34.5978 34.0732L29.5078 35.5832L33.1878 38.9432L32.3078 44.5432L36.8678 41.3132L41.4178 43.2532Z" fill="#FEB214"/>
<path d="M36.9231 20.5021C45.4331 19.3021 52.3331 25.8021 52.3231 34.9821C52.3031 44.1721 45.3731 52.6121 36.8631 53.8121C28.3431 55.0121 21.4431 48.5121 21.4531 39.3221C21.4731 30.1321 28.4031 21.6921 36.9231 20.5021ZM36.8631 51.0421C43.9531 50.0421 49.7431 43.0021 49.7531 35.3421C49.7631 27.6921 44.0031 22.2721 36.9131 23.2621C29.8131 24.2621 24.0331 31.3021 24.0131 38.9521C24.0031 46.6221 29.7631 52.0421 36.8631 51.0421Z" fill="white"/>
<path d="M36.9169 20.5021L27.7969 15.5421C29.6669 15.2821 31.4569 15.3921 33.1169 15.8121L42.2369 20.7721C40.5769 20.3421 38.7769 20.2321 36.9169 20.5021Z" fill="#A8A8A8"/>
<path d="M42.2294 20.7725L33.1094 15.8125C33.9594 16.0325 34.7794 16.3325 35.5494 16.7125L44.6694 21.6725C43.8994 21.2925 43.0794 20.9925 42.2294 20.7725Z" fill="#A3A3A3"/>
<path d="M44.6669 21.6709L35.5469 16.7109C35.7069 16.7909 35.8669 16.8709 36.0169 16.9509L45.1369 21.9109C44.9869 21.8309 44.8269 21.7509 44.6669 21.6709Z" fill="#9E9E9E"/>
<path d="M28.6181 52.3942L19.4981 47.4342C15.1781 45.0842 12.3182 40.2842 12.3282 34.3642C12.3282 32.1042 12.7582 29.8942 13.5182 27.8242L22.6381 32.7842C21.8781 34.8542 21.4581 37.0642 21.4481 39.3242C21.4381 45.2442 24.2981 50.0442 28.6181 52.3942Z" fill="#858585"/>
<path d="M22.6278 32.7827L13.5078 27.8227C13.8378 26.9227 14.2278 26.0627 14.6778 25.2227L23.7978 30.1827C23.3578 31.0127 22.9578 31.8827 22.6278 32.7827Z" fill="#8A8A8A"/>
<path d="M23.7997 30.1836L14.6797 25.2236C15.0597 24.5136 15.4797 23.8336 15.9397 23.1836L25.0597 28.1436C24.6097 28.7936 24.1797 29.4736 23.7997 30.1836Z" fill="#8F8F8F"/>
<path d="M25.0575 28.1441L15.9375 23.1841C16.3675 22.5641 16.8375 21.9741 17.3275 21.4141L26.4475 26.3741C25.9575 26.9341 25.4975 27.5241 25.0575 28.1441Z" fill="#949494"/>
<path d="M26.4559 26.3742L17.3359 21.4142C17.8359 20.8542 18.3559 20.3142 18.9159 19.8242L28.0359 24.7842C27.4759 25.2742 26.9459 25.8142 26.4559 26.3742Z" fill="#999999"/>
<path d="M28.0262 24.7837L18.9062 19.8237C19.4962 19.2937 20.1262 18.7937 20.7762 18.3438L29.8962 23.3037C29.2462 23.7537 28.6262 24.2437 28.0262 24.7837Z" fill="#9E9E9E"/>
<path d="M29.9012 23.3026L20.7812 18.3426C21.5813 17.7926 22.4212 17.3026 23.2912 16.8926L32.4113 21.8526C31.5413 22.2626 30.7012 22.7426 29.9012 23.3026Z" fill="#A3A3A3"/>
<path d="M32.4091 21.853L23.2891 16.893C24.7191 16.223 26.2291 15.763 27.7891 15.543L36.9091 20.503C35.3491 20.723 33.8391 21.183 32.4091 21.853Z" fill="#A8A8A8"/>
<path d="M52.2372 5.07295C59.1072 4.11295 64.6472 9.32296 64.6372 16.733L64.5772 49.7729C64.5672 57.1829 58.9972 63.963 52.1272 64.933L21.5172 69.233C14.6572 70.193 9.1072 64.983 9.1172 57.573L9.1772 24.5329C9.1872 17.1229 14.7572 10.3429 21.6272 9.37295L52.2372 5.07295ZM36.8472 53.8129C45.3572 52.6129 52.2872 44.173 52.3072 34.983C52.3272 25.803 45.4172 19.3029 36.9072 20.5029C28.3872 21.7029 21.4572 30.143 21.4372 39.323C21.4272 48.513 28.3372 55.0029 36.8472 53.8129Z" fill="#FEB214"/>
<path d="M40.5556 37.9034L42.2356 35.9034L44.2456 33.5134L39.1656 33.4334L36.8956 28.7734L34.6056 34.0734L29.5156 35.5834L33.1956 38.9434L32.3056 44.5334L36.8756 41.3134L41.4156 43.2534L40.5556 37.9034Z" fill="#FEB214"/>
<path d="M14.88 68.0933L5.76003 63.1333C2.29003 61.2433 -0.00996752 57.3833 3.24792e-05 52.6133L9.12003 57.5733C9.11003 62.3433 11.41 66.2033 14.88 68.0933Z" fill="#825408"/>
<path d="M21.6278 9.38328L12.5078 4.42328L43.1178 0.113281L52.2378 5.07328L21.6278 9.38328Z" fill="#B1720B"/>
<path d="M9.12 57.5723L0 52.6123L0.0699921 19.5723L9.17999 24.5323L9.12 57.5723Z" fill="#805208"/>
<path d="M9.1825 24.533L0.0625 19.573C0.0625 17.743 0.402507 15.963 1.02251 14.293L10.1425 19.253C9.5325 20.923 9.1925 22.713 9.1825 24.533Z" fill="#825408"/>
<path d="M10.1434 19.2531L1.02344 14.2931C1.28344 13.5731 1.60342 12.8731 1.96342 12.2031L11.0834 17.1631C10.7234 17.8331 10.4134 18.5331 10.1434 19.2531Z" fill="#875709"/>
<path d="M11.0809 17.1625L1.96094 12.2025C2.27094 11.6325 2.60095 11.0825 2.97095 10.5625L12.0909 15.5225C11.7209 16.0425 11.3909 16.5925 11.0809 17.1625Z" fill="#8C5A09"/>
<path d="M12.0887 15.5206L2.96875 10.5606C3.31875 10.0706 3.68875 9.59062 4.08875 9.14062L13.2087 14.1006C12.8087 14.5506 12.4387 15.0206 12.0887 15.5206Z" fill="#915D09"/>
<path d="M13.2137 14.1033L4.09375 9.14328C4.49375 8.69328 4.91375 8.26328 5.36375 7.86328L14.4837 12.8233C14.0337 13.2233 13.6137 13.6533 13.2137 14.1033Z" fill="#96610A"/>
<path d="M14.4794 12.8219L5.35938 7.86188C5.83937 7.43188 6.33938 7.03188 6.85938 6.67188L15.9794 11.6319C15.4594 11.9919 14.9494 12.3919 14.4794 12.8219Z" fill="#9B640A"/>
<path d="M15.9794 11.6317L6.85938 6.67172C7.49937 6.23172 8.17938 5.84172 8.87938 5.51172L17.9994 10.4717C17.2994 10.8017 16.6194 11.1917 15.9794 11.6317Z" fill="#A0670A"/>
<path d="M18.0028 10.4719L8.88281 5.51187C10.0328 4.97187 11.2528 4.59188 12.5228 4.42188L21.6428 9.38187C20.3728 9.55187 19.1528 9.93187 18.0028 10.4719Z" fill="#A56A0B"/>
<path d="M41.3374 33.568C41.3374 34.1013 41.2308 34.64 41.0174 35.184C40.8041 35.728 40.5321 36.2613 40.2014 36.784C39.8814 37.296 39.5188 37.7973 39.1134 38.288C38.7188 38.7787 38.3294 39.232 37.9454 39.648L37.0334 40.304V40.384L38.2654 40.128H41.5774V42H34.2654V40.88C34.5428 40.6027 34.8521 40.2933 35.1934 39.952C35.5454 39.6 35.8974 39.2267 36.2494 38.832C36.6014 38.4373 36.9428 38.032 37.2734 37.616C37.6148 37.1893 37.9134 36.768 38.1694 36.352C38.4254 35.936 38.6334 35.5307 38.7934 35.136C38.9534 34.7307 39.0334 34.3573 39.0334 34.016C39.0334 33.6107 38.9108 33.2693 38.6654 32.992C38.4201 32.704 37.9988 32.56 37.4014 32.56C37.0281 32.56 36.6494 32.64 36.2654 32.8C35.8814 32.9493 35.5508 33.1467 35.2734 33.392L34.3454 31.792C34.8041 31.4507 35.3161 31.1627 35.8814 30.928C36.4468 30.6933 37.1241 30.576 37.9134 30.576C38.4041 30.576 38.8574 30.64 39.2734 30.768C39.7001 30.896 40.0628 31.0827 40.3614 31.328C40.6708 31.5733 40.9108 31.888 41.0814 32.272C41.2521 32.6453 41.3374 33.0773 41.3374 33.568Z" fill="white"/>
</svg>
