<svg width="65" height="70" viewBox="0 0 65 70" fill="none" xmlns="http://www.w3.org/2000/svg">
<path d="M36.8544 53.8139L27.7344 48.8539C29.2944 48.6339 30.8044 48.1739 32.2344 47.5039L41.3544 52.4639C39.9244 53.1239 38.4144 53.5939 36.8544 53.8139Z" fill="#92415B"/>
<path d="M41.3544 52.4549L32.2344 47.4949C33.1044 47.0849 33.9444 46.6049 34.7444 46.0449L43.8644 51.0049C43.0644 51.5649 42.2244 52.0549 41.3544 52.4549Z" fill="#8D3F58"/>
<path d="M43.8622 51.0142L34.7422 46.0542C35.3922 45.6042 36.0222 45.1042 36.6122 44.5742L45.7322 49.5342C45.1322 50.0642 44.5122 50.5642 43.8622 51.0142Z" fill="#893D56"/>
<path d="M45.7372 49.5346L36.6172 44.5746C37.1672 44.0746 37.6972 43.5446 38.1972 42.9746L47.3172 47.9346C46.8172 48.5046 46.2872 49.0346 45.7372 49.5346Z" fill="#853B53"/>
<path d="M47.3075 47.9351L38.1875 42.9751C38.6875 42.4151 39.1475 41.8251 39.5775 41.2051L48.6975 46.1651C48.2775 46.7851 47.8075 47.3751 47.3075 47.9351Z" fill="#803950"/>
<path d="M48.706 46.1641L39.5859 41.2041C40.0459 40.5541 40.4659 39.8641 40.8459 39.1641L49.9659 44.1241C49.5859 44.8341 49.166 45.5141 48.706 46.1641Z" fill="#7C374D"/>
<path d="M49.9637 44.1245L40.8438 39.1645C41.2937 38.3245 41.6838 37.4545 42.0138 36.5645L51.1338 41.5245C50.8038 42.4245 50.4137 43.2845 49.9637 44.1245Z" fill="#77354B"/>
<path d="M51.1313 41.5248L42.0113 36.5648C42.7713 34.4948 43.1913 32.2848 43.2013 30.0248C43.2113 24.1048 40.3412 19.3048 36.0312 16.9648L45.1512 21.9248C49.4712 24.2748 52.3313 29.0748 52.3213 34.9848C52.3113 37.2348 51.8913 39.4548 51.1313 41.5248Z" fill="#733348"/>
<path d="M51.1313 41.5248L42.0113 36.5648C42.7713 34.4948 43.1913 32.2848 43.2013 30.0248C43.2113 24.1048 40.3412 19.3048 36.0312 16.9648L45.1512 21.9248C49.4712 24.2748 52.3313 29.0748 52.3213 34.9848C52.3113 37.2348 51.8913 39.4548 51.1313 41.5248Z" fill="#733348"/>
<path d="M36.8544 51.0431L27.7344 46.0831C29.0344 45.9031 30.2944 45.5131 31.4744 44.9531L40.5944 49.9131C39.4144 50.4731 38.1644 50.8631 36.8544 51.0431Z" fill="#A8A8A8"/>
<path d="M40.6044 49.9141L31.4844 44.9541C32.2144 44.6141 32.9044 44.2141 33.5744 43.7441L42.6944 48.7041C42.0244 49.1741 41.3244 49.5741 40.6044 49.9141Z" fill="#A3A3A3"/>
<path d="M42.6981 48.7134L33.5781 43.7534C34.1181 43.3734 34.6381 42.9634 35.1381 42.5234L44.2581 47.4834C43.7581 47.9234 43.2381 48.3334 42.6981 48.7134Z" fill="#9E9E9E"/>
<path d="M44.2528 47.4853L35.1328 42.5253C35.5928 42.1053 36.0328 41.6653 36.4528 41.1953L45.5728 46.1553C45.1528 46.6153 44.7128 47.0653 44.2528 47.4853Z" fill="#999999"/>
<path d="M45.5653 46.1548L36.4453 41.1948C36.8553 40.7248 37.2453 40.2348 37.6053 39.7148L46.7253 44.6749C46.3753 45.1849 45.9853 45.6848 45.5653 46.1548Z" fill="#949494"/>
<path d="M46.7372 44.6739L37.6172 39.7139C37.9972 39.1639 38.3472 38.5939 38.6672 38.0039L47.7872 42.9639C47.4672 43.5539 47.1172 44.1239 46.7372 44.6739Z" fill="#8F8F8F"/>
<path d="M47.7841 42.964L38.6641 38.004C39.0341 37.304 39.3641 36.584 39.6441 35.834L48.7641 40.794C48.4841 41.544 48.1541 42.274 47.7841 42.964Z" fill="#8A8A8A"/>
<path d="M48.7506 40.7944L39.6306 35.8344C40.2606 34.1044 40.6206 32.2644 40.6206 30.3744C40.6306 25.4444 38.2406 21.4344 34.6406 19.4844L43.7606 24.4444C47.3606 26.4044 49.7506 30.4044 49.7406 35.3344C49.7406 37.2244 49.3906 39.0744 48.7506 40.7944Z" fill="#858585"/>
<path d="M44.1413 40.8436L35.0312 35.8936V33.1836L44.1512 38.1436L44.1413 40.8436Z" fill="#713346"/>
<path d="M37.9794 43.5145L28.8594 38.5545L35.0294 35.8945L44.1394 40.8445L37.9794 43.5145Z" fill="#9B4661"/>
<path d="M44.149 36.4854L35.0391 31.5254L35.049 25.2754L44.1591 30.2354L44.149 36.4854Z" fill="#713346"/>
<path d="M37.9872 40.8036L28.8672 35.8436L35.0272 33.1836L44.1472 38.1436L37.9872 40.8036Z" fill="#B3B3B3"/>
<path d="M44.1544 38.1445L44.1444 40.8445L37.9844 43.5145L37.9944 40.8045L44.1544 38.1445Z" fill="#DD5B8B"/>
<path d="M37.9794 43.5137L28.8594 38.5537L28.8694 35.8438L37.9893 40.8037L37.9794 43.5137Z" fill="#828282"/>
<path d="M37.9872 39.1454L28.8672 34.1854L35.0372 31.5254L44.1472 36.4854L37.9872 39.1454Z" fill="#9B4661"/>
<path d="M36.4012 43.7342L27.2812 38.7742V36.0742L36.4012 41.0342V43.7342Z" fill="#713346"/>
<path d="M28.6122 52.3936L19.4922 47.4336C19.6522 47.5136 19.8022 47.6036 19.9622 47.6736L29.0822 52.6336C28.9222 52.5536 28.7722 52.4736 28.6122 52.3936Z" fill="#893D56"/>
<path d="M29.0809 52.6338L19.9609 47.6738C20.7309 48.0538 21.5509 48.3538 22.4009 48.5738L31.5209 53.5338C30.6709 53.3238 29.8609 53.0138 29.0809 52.6338Z" fill="#8D3F58"/>
<path d="M31.5262 53.5342L22.4062 48.5742C24.0662 49.0042 25.8563 49.1142 27.7263 48.8442L36.8463 53.8042C34.9863 54.0742 33.1862 53.9642 31.5262 53.5342Z" fill="#92415B"/>
<path d="M29.9872 49.8663L20.8672 44.9062C20.9972 44.9763 21.1272 45.0462 21.2572 45.1062L30.3772 50.0663C30.2472 50.0063 30.1172 49.9363 29.9872 49.8663Z" fill="#9E9E9E"/>
<path d="M30.3778 50.0655L21.2578 45.1055C21.9078 45.4255 22.5878 45.6755 23.2978 45.8555L32.4178 50.8155C31.7078 50.6355 31.0278 50.3855 30.3778 50.0655Z" fill="#A3A3A3"/>
<path d="M32.4169 50.8155L23.2969 45.8555C24.6769 46.2155 26.1769 46.3055 27.7369 46.0855L36.8569 51.0455C35.2969 51.2655 33.7969 51.1755 32.4169 50.8155Z" fill="#A8A8A8"/>
<path d="M44.1622 30.2344L44.1522 36.4844L37.9922 39.1444L38.0022 32.9044L44.1622 30.2344Z" fill="#DD5B8B"/>
<path d="M37.9872 39.1453L28.8672 34.1853L28.8772 27.9453L37.9972 32.9053L37.9872 39.1453Z" fill="#828282"/>
<path d="M38.0028 32.9054L28.8828 27.9454L35.0528 25.2754L44.1628 30.2354L38.0028 32.9054Z" fill="#B3B3B3"/>
<path d="M52.2372 5.07502L43.1172 0.115019C44.6272 -0.0949811 46.0772 -0.0149799 47.4172 0.33502L56.5372 5.29502C55.1972 4.95502 53.7472 4.86502 52.2372 5.07502Z" fill="#92415B"/>
<path d="M56.5419 5.29594L47.4219 0.335938C48.1119 0.515938 48.7619 0.755933 49.3919 1.06593L58.5119 6.02594C57.8819 5.71594 57.2219 5.47594 56.5419 5.29594Z" fill="#8D3F58"/>
<path d="M58.495 6.02641L49.375 1.06641C49.505 1.12641 49.625 1.19641 49.755 1.26641L58.875 6.22641C58.755 6.15641 58.625 6.08641 58.495 6.02641Z" fill="#893D56"/>
<path d="M36.399 39.3741L27.2891 34.4141L27.299 28.1641L36.4191 33.1241L36.399 39.3741Z" fill="#713346"/>
<path d="M30.2294 42.8037L21.1094 37.8438L27.2794 38.7737L36.3994 43.7337L30.2294 42.8037Z" fill="#96435E"/>
<path d="M30.2294 42.8048L21.1094 37.8448L21.1194 35.1348L30.2393 40.0948L30.2294 42.8048Z" fill="#828282"/>
<path d="M30.2372 40.0948L21.1172 35.1348L27.2772 36.0748L36.3972 41.0348L30.2372 40.0948Z" fill="#ADADAD"/>
<path d="M30.2372 38.4346L21.1172 33.4746L27.2872 34.4146L36.3972 39.3746L30.2372 38.4346Z" fill="#96435E"/>
<path d="M36.9091 23.2664L27.7891 18.3064C29.3491 18.0864 30.8391 18.1764 32.2191 18.5364L41.3391 23.4964C39.949 23.1364 38.4591 23.0464 36.9091 23.2664Z" fill="#92415B"/>
<path d="M41.3387 23.4952L32.2188 18.5352C32.9287 18.7152 33.6088 18.9752 34.2588 19.2852L43.3788 24.2452C42.7288 23.9252 42.0487 23.6752 41.3387 23.4952Z" fill="#8D3F58"/>
<path d="M43.37 24.2452L34.25 19.2852C34.38 19.3552 34.51 19.4152 34.64 19.4852L43.76 24.4452C43.63 24.3752 43.5 24.3152 43.37 24.2452Z" fill="#893D56"/>
<path d="M30.2528 32.1846L21.1328 27.2246L27.3028 28.1646L36.4228 33.1246L30.2528 32.1846Z" fill="#ADADAD"/>
<path d="M30.2372 38.4346L21.1172 33.4746L21.1272 27.2246L30.2472 32.1846L30.2372 38.4346Z" fill="#828282"/>
<path d="M29.9906 49.8647L20.8706 44.9047C17.2706 42.9447 14.8807 38.9347 14.8907 34.0047C14.8907 32.1247 15.2406 30.2847 15.8806 28.5547L25.0006 33.5147C24.3706 35.2447 24.0207 37.0847 24.0107 38.9647C24.0007 43.8947 26.3906 47.9047 29.9906 49.8647Z" fill="#733348"/>
<path d="M29.9906 49.8647L20.8706 44.9047C17.2706 42.9447 14.8807 38.9347 14.8907 34.0047C14.8907 32.1247 15.2406 30.2847 15.8806 28.5547L25.0006 33.5147C24.3706 35.2447 24.0207 37.0847 24.0107 38.9647C24.0007 43.8947 26.3906 47.9047 29.9906 49.8647Z" fill="#733348"/>
<path d="M25.0028 33.5148L15.8828 28.5548C16.1528 27.8048 16.4828 27.0848 16.8628 26.3848L25.9828 31.3448C25.6028 32.0448 25.2728 32.7648 25.0028 33.5148Z" fill="#77354B"/>
<path d="M25.9716 31.3436L16.8516 26.3836C17.1716 25.7936 17.5216 25.2236 17.9016 24.6836L27.0215 29.6436C26.6415 30.1836 26.2916 30.7536 25.9716 31.3436Z" fill="#7C374D"/>
<path d="M27.0184 29.6451L17.8984 24.6851C18.2584 24.1751 18.6484 23.6751 19.0584 23.2051L28.1784 28.1651C27.7684 28.6351 27.3784 29.1251 27.0184 29.6451Z" fill="#803950"/>
<path d="M28.1903 28.165L19.0703 23.205C19.4903 22.735 19.9303 22.295 20.3903 21.875L29.5103 26.835C29.0403 27.255 28.6003 27.695 28.1903 28.165Z" fill="#853B53"/>
<path d="M29.5028 26.8345L20.3828 21.8745C20.8828 21.4245 21.4028 21.0145 21.9428 20.6445L31.0628 25.6045C30.5228 25.9745 30.0028 26.3845 29.5028 26.8345Z" fill="#893D56"/>
<path d="M31.0575 25.6036L21.9375 20.6436C22.6075 20.1836 23.3075 19.7736 24.0275 19.4336L33.1475 24.3936C32.4275 24.7336 31.7275 25.1436 31.0575 25.6036Z" fill="#8D3F58"/>
<path d="M33.1512 24.3947L24.0312 19.4347C25.2213 18.8747 26.4813 18.4847 27.7812 18.3047L36.9012 23.2647C35.6012 23.4447 34.3412 23.8347 33.1512 24.3947Z" fill="#92415B"/>
<path d="M36.9075 20.4943C45.4175 19.2943 52.3275 25.7943 52.3175 34.9743C52.2975 44.1643 45.3575 52.6043 36.8475 53.8043C28.3275 55.0043 21.4275 48.5043 21.4375 39.3143C21.4575 30.1343 28.3975 21.6943 36.9075 20.4943ZM36.8475 51.0443C43.9375 50.0443 49.7275 43.0043 49.7375 35.3443C49.7475 27.6943 43.9875 22.2743 36.8975 23.2643C29.7975 24.2643 24.0175 31.3043 23.9975 38.9543C23.9875 46.6243 29.7575 52.0443 36.8475 51.0443Z" fill="white"/>
<path d="M30.2522 32.1836L36.4222 33.1236L36.4022 39.3736L30.2422 38.4336L30.2522 32.1836Z" fill="#DD5B8B"/>
<path d="M36.9078 23.2652C43.9978 22.2652 49.7578 27.6952 49.7478 35.3452C49.7378 43.0052 43.9478 50.0552 36.8578 51.0452C29.7578 52.0452 23.9978 46.6252 24.0078 38.9652C24.0178 31.3052 29.8078 24.2652 36.9078 23.2652ZM36.3978 39.3752L36.4078 33.1352L30.2478 32.1952L30.2378 38.4452L36.3978 39.3752ZM44.1478 36.4852L44.1578 30.2352L37.9978 32.9052L37.9878 39.1452L44.1478 36.4852ZM36.3978 43.7352L36.4078 41.0252L30.2478 40.0952L30.2378 42.8052L36.3978 43.7352ZM44.1378 40.8452V38.1352L37.9778 40.7952L37.9678 43.5052L44.1378 40.8452Z" fill="#DD5B8B"/>
<path d="M30.2444 40.0938L36.4044 41.0338V43.7337L30.2344 42.8037L30.2444 40.0938Z" fill="#DD5B8B"/>
<path d="M36.9091 20.4943L27.7891 15.5343C29.6591 15.2743 31.4491 15.3843 33.1091 15.8043L42.2291 20.7643C40.5691 20.3443 38.7791 20.2343 36.9091 20.4943Z" fill="#A8A8A8"/>
<path d="M42.2294 20.7745L33.1094 15.8145C33.9594 16.0345 34.7793 16.3345 35.5493 16.7145L44.6694 21.6745C43.8994 21.2945 43.0794 20.9945 42.2294 20.7745Z" fill="#A3A3A3"/>
<path d="M44.6669 21.6748L35.5469 16.7148C35.7069 16.7948 35.8669 16.8748 36.0169 16.9548L45.1369 21.9148C44.9869 21.8348 44.8269 21.7548 44.6669 21.6748Z" fill="#9E9E9E"/>
<path d="M14.88 68.0952L5.76004 63.1352C2.29004 61.2452 -0.00996752 57.3852 3.2479e-05 52.6152L9.12003 57.5752C9.11003 62.3452 11.41 66.2052 14.88 68.0952Z" fill="#733348"/>
<path d="M28.6103 52.3942L19.4903 47.4342C15.1703 45.0842 12.3103 40.2842 12.3203 34.3642C12.3203 32.1042 12.7503 29.8942 13.5103 27.8242L22.6303 32.7842C21.8703 34.8542 21.4503 37.0642 21.4403 39.3242C21.4303 45.2442 24.3003 50.0442 28.6103 52.3942Z" fill="#858585"/>
<path d="M22.6278 32.7846L13.5078 27.8246C13.8378 26.9246 14.2278 26.0646 14.6778 25.2246L23.7978 30.1846C23.3478 31.0146 22.9578 31.8846 22.6278 32.7846Z" fill="#8A8A8A"/>
<path d="M23.7997 30.1836L14.6797 25.2236C15.0597 24.5136 15.4797 23.8336 15.9397 23.1836L25.0597 28.1436C24.5997 28.7936 24.1797 29.4736 23.7997 30.1836Z" fill="#8F8F8F"/>
<path d="M25.0575 28.1441L15.9375 23.1841C16.3675 22.5641 16.8375 21.9741 17.3275 21.4141L26.4475 26.3741C25.9575 26.9341 25.4875 27.5241 25.0575 28.1441Z" fill="#949494"/>
<path d="M26.4482 26.3742L17.3281 21.4142C17.8281 20.8542 18.3481 20.3142 18.9081 19.8242L28.0281 24.7842C27.4781 25.2742 26.9482 25.8142 26.4482 26.3742Z" fill="#999999"/>
<path d="M28.0262 24.7759L18.9062 19.8159C19.4962 19.2859 20.1262 18.7859 20.7762 18.3359L29.8962 23.2959C29.2462 23.7559 28.6162 24.2459 28.0262 24.7759Z" fill="#9E9E9E"/>
<path d="M29.9012 23.3045L20.7812 18.3445C21.5813 17.7945 22.4213 17.3045 23.2913 16.8945L32.4113 21.8545C31.5413 22.2645 30.7012 22.7445 29.9012 23.3045Z" fill="#A3A3A3"/>
<path d="M32.4091 21.8549L23.2891 16.8949C24.7191 16.2249 26.2291 15.7649 27.7891 15.5449L36.9091 20.5049C35.3491 20.7149 33.8291 21.1849 32.4091 21.8549Z" fill="#A8A8A8"/>
<path d="M21.6357 9.37524L12.5156 4.41524L43.1156 0.115234L52.2356 5.07523L21.6357 9.37524Z" fill="#9C4662"/>
<path d="M9.12 57.5742L0 52.6142L0.0599976 19.5742L9.17999 24.5342L9.12 57.5742Z" fill="#713346"/>
<path d="M52.4794 5.11397C59.3394 4.15397 64.8994 9.36397 64.8894 16.774L64.8294 49.814C64.8194 57.224 59.2394 64.004 52.3694 64.974L21.7694 69.274C14.9094 70.234 9.34939 65.024 9.35939 57.614L9.41939 24.574C9.42939 17.164 15.0094 10.384 21.8794 9.41397L52.4794 5.11397ZM37.0894 53.854C45.5994 52.654 52.5394 44.214 52.5594 35.024C52.5794 25.844 45.6594 19.344 37.1494 20.544C28.6294 21.744 21.6994 30.184 21.6794 39.364C21.6694 48.554 28.5694 55.044 37.0894 53.854Z" fill="url(#paint0_linear_4157_6952)"/>
<path d="M9.1825 24.5369L0.0625 19.5769C0.0625 17.7569 0.402491 15.9669 1.02249 14.2969L10.1425 19.2569C9.52252 20.9269 9.1825 22.7169 9.1825 24.5369Z" fill="#733348"/>
<path d="M10.1435 19.257L1.02344 14.297C1.28344 13.577 1.60344 12.877 1.96344 12.207L11.0834 17.167C10.7234 17.837 10.4035 18.537 10.1435 19.257Z" fill="#77354B"/>
<path d="M11.0809 17.1664L1.96094 12.2064C2.27094 11.6364 2.60095 11.0864 2.97095 10.5664L12.0909 15.5264C11.7209 16.0564 11.3809 16.6064 11.0809 17.1664Z" fill="#7C374D"/>
<path d="M12.0887 15.5245L2.96875 10.5645C3.31875 10.0645 3.68875 9.59453 4.08875 9.14453L13.2087 14.1045C12.8087 14.5545 12.4387 15.0345 12.0887 15.5245Z" fill="#803950"/>
<path d="M13.2137 14.1072L4.09375 9.14719C4.49375 8.69719 4.91377 8.26719 5.36377 7.86719L14.4838 12.8272C14.0338 13.2272 13.6137 13.6572 13.2137 14.1072Z" fill="#853B53"/>
<path d="M14.4716 12.8258L5.35156 7.86578C5.83156 7.43578 6.33156 7.03578 6.85156 6.67578L15.9716 11.6358C15.4516 11.9958 14.9516 12.3958 14.4716 12.8258Z" fill="#893D56"/>
<path d="M15.9794 11.6359L6.85938 6.67586C7.49937 6.23586 8.17936 5.83586 8.87936 5.50586L17.9994 10.4659C17.2994 10.8059 16.6194 11.1959 15.9794 11.6359Z" fill="#8D3F58"/>
<path d="M18.0028 10.4758L8.88281 5.51579C10.0328 4.97579 11.2528 4.59578 12.5228 4.42578L21.6428 9.38578C20.3728 9.55578 19.1528 9.93578 18.0028 10.4758Z" fill="#92415B"/>
<path d="M36.6488 40.352C37.0115 40.352 37.3261 40.3093 37.5928 40.224C37.8701 40.128 38.0995 40 38.2808 39.84C38.4621 39.68 38.6008 39.4987 38.6968 39.296C38.7928 39.0827 38.8408 38.864 38.8408 38.64C38.8408 38.064 38.6435 37.6373 38.2488 37.36C37.8648 37.0827 37.2408 36.944 36.3768 36.944H35.1128V35.76L37.1768 33.232L38.1848 32.496L36.8088 32.672H33.9128V30.8H40.5688V32L38.1688 34.944L37.3848 35.376V35.456L38.1208 35.36C38.5155 35.392 38.8888 35.4827 39.2408 35.632C39.6035 35.7813 39.9181 35.984 40.1848 36.24C40.4621 36.496 40.6808 36.816 40.8408 37.2C41.0008 37.5733 41.0808 38.0107 41.0808 38.512C41.0808 39.1413 40.9635 39.6907 40.7288 40.16C40.5048 40.6187 40.1955 41.0027 39.8008 41.312C39.4061 41.6213 38.9421 41.8507 38.4088 42C37.8755 42.1493 37.2995 42.224 36.6808 42.224C36.4248 42.224 36.1635 42.2133 35.8968 42.192C35.6301 42.1707 35.3688 42.1333 35.1128 42.08C34.8568 42.0373 34.6115 41.9893 34.3768 41.936C34.1528 41.872 33.9555 41.7973 33.7848 41.712L34.3928 39.856C34.6915 39.9947 35.0275 40.112 35.4008 40.208C35.7741 40.304 36.1901 40.352 36.6488 40.352Z" fill="white"/>
<defs>
<linearGradient id="paint0_linear_4157_6952" x1="9.35669" y1="37.1949" x2="64.8823" y2="37.1949" gradientUnits="userSpaceOnUse">
<stop stop-color="#DD578B"/>
<stop offset="1" stop-color="#DD7A88"/>
</linearGradient>
</defs>
</svg>
