<svg width="65" height="70" viewBox="0 0 65 70" fill="none" xmlns="http://www.w3.org/2000/svg">
<path d="M36.8544 53.8217L27.7344 48.8617C29.3044 48.6417 30.8144 48.1817 32.2344 47.5117L41.3544 52.4717C39.9344 53.1317 38.4244 53.6017 36.8544 53.8217Z" fill="#1B64A3"/>
<path d="M41.3544 52.4627L32.2344 47.5027C33.1044 47.0927 33.9443 46.6127 34.7443 46.0527L43.8644 51.0127C43.0644 51.5727 42.2244 52.0527 41.3544 52.4627Z" fill="#1A619E"/>
<path d="M43.8622 51.022L34.7422 46.062C35.3922 45.612 36.0222 45.122 36.6122 44.582L45.7322 49.542C45.1422 50.072 44.5122 50.572 43.8622 51.022Z" fill="#195E99"/>
<path d="M45.7372 49.5422L36.6172 44.5822C37.1672 44.0822 37.6971 43.5522 38.1971 42.9922L47.3171 47.9522C46.8171 48.5122 46.2872 49.0422 45.7372 49.5422Z" fill="#195B94"/>
<path d="M47.3153 47.9429L38.1953 42.9829C38.6853 42.4229 39.1553 41.8329 39.5853 41.2129L48.7053 46.1729C48.2753 46.7929 47.8053 47.3829 47.3153 47.9429Z" fill="#18588F"/>
<path d="M48.7059 46.1836L39.5859 41.2236C40.0459 40.5736 40.4659 39.8836 40.8459 39.1836L49.9659 44.1436C49.5859 44.8436 49.1659 45.5236 48.7059 46.1836Z" fill="#17558A"/>
<path d="M49.9637 44.1342L40.8438 39.1742C41.2937 38.3342 41.6837 37.4742 42.0137 36.5742L51.1337 41.5342C50.8037 42.4342 50.4137 43.3042 49.9637 44.1342Z" fill="#165285"/>
<path d="M51.1312 41.5331L42.0112 36.5731C42.7712 34.5031 43.1912 32.2831 43.2012 30.0231C43.2112 24.1031 40.3513 19.3031 36.0312 16.9531L45.1512 21.9131C49.4712 24.2631 52.3312 29.0731 52.3212 34.9831C52.3112 37.2531 51.8912 39.4631 51.1312 41.5331Z" fill="#154F80"/>
<path d="M51.1312 41.5331L42.0112 36.5731C42.7712 34.5031 43.1912 32.2831 43.2012 30.0231C43.2112 24.1031 40.3513 19.3031 36.0312 16.9531L45.1512 21.9131C49.4712 24.2631 52.3312 29.0731 52.3212 34.9831C52.3112 37.2531 51.8912 39.4631 51.1312 41.5331Z" fill="#154F80"/>
<path d="M36.8622 51.0431L27.7422 46.0831C29.0522 45.9031 30.3122 45.5131 31.5022 44.9531L40.6222 49.9131C39.4222 50.4731 38.1622 50.8631 36.8622 51.0431Z" fill="#A8A8A8"/>
<path d="M40.6122 49.9141L31.4922 44.9541C32.2222 44.6141 32.9222 44.2041 33.5822 43.7441L42.7022 48.7041C42.0422 49.1741 41.3422 49.5741 40.6122 49.9141Z" fill="#A3A3A3"/>
<path d="M42.6981 48.7134L33.5781 43.7534C34.1181 43.3734 34.6381 42.9634 35.1381 42.5234L44.2581 47.4834C43.7681 47.9234 43.2481 48.3334 42.6981 48.7134Z" fill="#9E9E9E"/>
<path d="M44.2606 47.4736L35.1406 42.5136C35.6006 42.0936 36.0406 41.6536 36.4606 41.1836L45.5806 46.1436C45.1606 46.6136 44.7206 47.0636 44.2606 47.4736Z" fill="#999999"/>
<path d="M45.5809 46.1448L36.4609 41.1848C36.8709 40.7148 37.2609 40.2248 37.6209 39.7148L46.7409 44.6748C46.3809 45.1848 45.9909 45.6748 45.5809 46.1448Z" fill="#949494"/>
<path d="M46.745 44.6737L37.625 39.7137C38.005 39.1737 38.355 38.6037 38.675 38.0137L47.795 42.9737C47.475 43.5537 47.125 44.1237 46.745 44.6737Z" fill="#8F8F8F"/>
<path d="M47.7919 42.9737L38.6719 38.0137C39.0419 37.3137 39.3719 36.5938 39.6519 35.8438L48.7719 40.8037C48.4919 41.5437 48.1619 42.2737 47.7919 42.9737Z" fill="#8A8A8A"/>
<path d="M48.7662 40.8039L39.6462 35.8439C40.2762 34.1139 40.6362 32.2739 40.6362 30.3939C40.6462 25.4639 38.2562 21.4539 34.6562 19.5039L43.7762 24.4639C47.3762 26.4239 49.7662 30.4239 49.7562 35.3539C49.7562 37.2339 49.4062 39.0739 48.7662 40.8039Z" fill="#2485D8"/>
<path d="M44.7372 35.0623L35.6172 30.1023L35.7872 30.0723L44.9072 35.0323L44.7372 35.0623Z" fill="#1D6BAF"/>
<path d="M44.8231 35.003L35.7031 30.043L35.7932 30.073L44.9131 35.033L44.8231 35.003Z" fill="#A5A5A5"/>
<path d="M44.8231 35.0024L35.7031 30.0424L35.7932 29.9824L44.9131 34.9424L44.8231 35.0024Z" fill="#1C67A8"/>
<path d="M44.7372 34.9624L35.6172 30.0024L35.7872 29.9824L44.9072 34.9424L44.7372 34.9624Z" fill="#B4B4B4"/>
<path d="M40.9716 43.7616L31.8516 38.8016L31.8616 34.6016L40.9816 39.5616L40.9716 43.7616Z" fill="#2485D8"/>
<path d="M32.7684 44.9227L23.6484 39.9627L31.8484 38.8027L40.9684 43.7627L32.7684 44.9227Z" fill="#2485D8"/>
<path d="M36.87 42.6616L27.75 37.7016L31.86 34.6016L40.98 39.5616L36.87 42.6616Z" fill="#2485D8"/>
<path d="M36.8678 40.77L27.7578 35.81L35.6178 30L44.7378 34.96L36.8678 40.77Z" fill="#2485D8"/>
<path d="M28.62 52.4014L19.5 47.4414C19.66 47.5214 19.81 47.6114 19.97 47.6814L29.09 52.6414C28.93 52.5614 28.77 52.4814 28.62 52.4014Z" fill="#195E99"/>
<path d="M29.0887 52.6416L19.9688 47.6816C20.7387 48.0616 21.5588 48.3616 22.4088 48.5816L31.5287 53.5416C30.6787 53.3216 29.8587 53.0216 29.0887 52.6416Z" fill="#1A619E"/>
<path d="M31.5262 53.542L22.4062 48.582C24.0662 49.012 25.8563 49.122 27.7263 48.852L36.8463 53.812C34.9763 54.082 33.1862 53.972 31.5262 53.542Z" fill="#1B64A3"/>
<path d="M29.9872 49.8623L20.8672 44.9023C20.9972 44.9723 21.1272 45.0423 21.2572 45.1023L30.3772 50.0623C30.2472 50.0023 30.1172 49.9323 29.9872 49.8623Z" fill="#9E9E9E"/>
<path d="M30.3778 50.0616L21.2578 45.1016C21.8978 45.4216 22.5778 45.6716 23.2878 45.8516L32.4078 50.8116C31.7078 50.6316 31.0278 50.3816 30.3778 50.0616Z" fill="#A3A3A3"/>
<path d="M32.4169 50.8116L23.2969 45.8516C24.6769 46.2116 26.1768 46.3016 27.7368 46.0816L36.8569 51.0416C35.2969 51.2616 33.7969 51.1716 32.4169 50.8116Z" fill="#A8A8A8"/>
<path d="M52.2372 5.07249L43.1172 0.112493C44.6272 -0.0975069 46.0772 -0.00750574 47.4172 0.332494L56.5372 5.29249C55.1872 4.95249 53.7472 4.86249 52.2372 5.07249Z" fill="#1B64A3"/>
<path d="M56.5262 5.29203L47.4062 0.332031C48.0962 0.512031 48.7462 0.752031 49.3762 1.06203L58.4962 6.02203C57.8662 5.71203 57.2162 5.47203 56.5262 5.29203Z" fill="#1A619E"/>
<path d="M58.495 6.0225L49.375 1.0625C49.505 1.1225 49.625 1.1925 49.755 1.2625L58.875 6.2225C58.745 6.1525 58.625 6.0825 58.495 6.0225Z" fill="#195E99"/>
<path d="M32.7684 44.9217L23.6484 39.9617L23.6584 35.7617L32.7684 40.7217V44.9217Z" fill="#828282"/>
<path d="M32.7662 40.7217L23.6562 35.7617L27.7462 37.7017L36.8662 42.6617L32.7662 40.7217Z" fill="#A0A0A0"/>
<path d="M36.8856 31.3623L27.7656 26.4023L35.6156 30.0023L44.7356 34.9623L36.8856 31.3623Z" fill="#A0A0A0"/>
<path d="M29.0162 37.1723L19.9062 32.2123L27.7662 26.4023L36.8862 31.3623L29.0162 37.1723Z" fill="#ADADAD"/>
<path d="M36.9091 23.2723L27.7891 18.3123C29.3491 18.0923 30.8491 18.1823 32.2291 18.5423L41.3491 23.5023C39.9591 23.1423 38.4691 23.0523 36.9091 23.2723Z" fill="#1B64A3"/>
<path d="M41.3466 23.503L32.2266 18.543C32.9366 18.723 33.6165 18.983 34.2665 19.293L43.3865 24.253C42.7365 23.933 42.0566 23.683 41.3466 23.503Z" fill="#1A619E"/>
<path d="M43.3778 24.253L34.2578 19.293C34.3878 19.363 34.5178 19.423 34.6478 19.493L43.7678 24.453C43.6478 24.383 43.5178 24.323 43.3778 24.253Z" fill="#195E99"/>
<path d="M36.9091 20.5021L27.7891 15.5421C29.6591 15.2821 31.4491 15.3921 33.1091 15.8121L42.2291 20.7721C40.5691 20.3421 38.7791 20.2321 36.9091 20.5021Z" fill="#A8A8A8"/>
<path d="M42.2294 20.7725L33.1094 15.8125C33.9594 16.0325 34.7794 16.3325 35.5494 16.7125L44.6694 21.6725C43.8994 21.2925 43.0794 20.9925 42.2294 20.7725Z" fill="#A3A3A3"/>
<path d="M44.6669 21.6709L35.5469 16.7109C35.7069 16.7909 35.8668 16.8709 36.0168 16.9509L45.1368 21.9109C44.9868 21.8309 44.8269 21.7509 44.6669 21.6709Z" fill="#9E9E9E"/>
<path d="M29.9884 49.863L20.8684 44.903C17.2684 42.943 14.8885 38.943 14.8985 34.003C14.8985 32.123 15.2585 30.273 15.8885 28.543L25.0085 33.503C24.3785 35.233 24.0185 37.073 24.0185 38.963C24.0085 43.903 26.3884 47.903 29.9884 49.863Z" fill="#154F80"/>
<path d="M29.9884 49.863L20.8684 44.903C17.2684 42.943 14.8885 38.943 14.8985 34.003C14.8985 32.123 15.2585 30.273 15.8885 28.543L25.0085 33.503C24.3785 35.233 24.0185 37.073 24.0185 38.963C24.0085 43.903 26.3884 47.903 29.9884 49.863Z" fill="#154F80"/>
<path d="M25.0106 33.5128L15.8906 28.5528C16.1606 27.8028 16.4906 27.0828 16.8706 26.3828L25.9906 31.3428C25.6106 32.0428 25.2806 32.7628 25.0106 33.5128Z" fill="#165285"/>
<path d="M25.9794 31.3436L16.8594 26.3836C17.1794 25.7936 17.5294 25.2236 17.9094 24.6836L27.0294 29.6436C26.6494 30.1836 26.2994 30.7536 25.9794 31.3436Z" fill="#17558A"/>
<path d="M27.0262 29.6429L17.9062 24.6829C18.2663 24.1729 18.6562 23.6729 19.0662 23.2129L28.1862 28.1729C27.7762 28.6329 27.3862 29.1229 27.0262 29.6429Z" fill="#18588F"/>
<path d="M28.1903 28.1728L19.0703 23.2128C19.4803 22.7428 19.9203 22.3028 20.3903 21.8828L29.5103 26.8428C29.0503 27.2528 28.6103 27.7028 28.1903 28.1728Z" fill="#195B94"/>
<path d="M29.5106 26.8423L20.3906 21.8823C20.8806 21.4323 21.4106 21.0223 21.9506 20.6523L31.0706 25.6123C30.5206 25.9823 30.0006 26.3923 29.5106 26.8423Z" fill="#195E99"/>
<path d="M31.0575 25.6114L21.9375 20.6514C22.6075 20.1914 23.2975 19.7914 24.0275 19.4414L33.1475 24.4014C32.4275 24.7414 31.7275 25.1414 31.0575 25.6114Z" fill="#1A619E"/>
<path d="M33.1512 24.4025L24.0312 19.4425C25.2213 18.8825 26.4813 18.4925 27.7812 18.3125L36.9012 23.2725C35.6012 23.4525 34.3412 23.8425 33.1512 24.4025Z" fill="#1B64A3"/>
<path d="M28.6181 52.402L19.4981 47.442C15.1781 45.092 12.3182 40.292 12.3282 34.372C12.3282 32.112 12.7582 29.902 13.5182 27.832L22.6381 32.792C21.8781 34.862 21.4581 37.072 21.4481 39.332C21.4281 45.252 24.2981 50.052 28.6181 52.402Z" fill="#858585"/>
<path d="M22.6278 32.7944L13.5078 27.8344C13.8378 26.9344 14.2278 26.0644 14.6778 25.2344L23.7979 30.1944C23.3479 31.0244 22.9578 31.8944 22.6278 32.7944Z" fill="#8A8A8A"/>
<path d="M23.7997 30.1936L14.6797 25.2336C15.0597 24.5236 15.4797 23.8436 15.9397 23.1836L25.0597 28.1436C24.6097 28.7936 24.1797 29.4836 23.7997 30.1936Z" fill="#8F8F8F"/>
<path d="M25.0575 28.1441L15.9375 23.1841C16.3675 22.5641 16.8375 21.9741 17.3275 21.4141L26.4475 26.3741C25.9575 26.9341 25.4975 27.5241 25.0575 28.1441Z" fill="#949494"/>
<path d="M26.4559 26.3725L17.3359 21.4125C17.8359 20.8525 18.366 20.3125 18.916 19.8125L28.0359 24.7725C27.4759 25.2725 26.9559 25.8125 26.4559 26.3725Z" fill="#999999"/>
<path d="M28.0419 24.772L18.9219 19.812C19.5119 19.282 20.1419 18.782 20.7919 18.332L29.9119 23.292C29.2619 23.742 28.6319 24.242 28.0419 24.772Z" fill="#9E9E9E"/>
<path d="M29.9091 23.2928L20.7891 18.3328C21.5891 17.7828 22.4291 17.2928 23.2991 16.8828L32.4191 21.8428C31.5491 22.2628 30.7091 22.7428 29.9091 23.2928Z" fill="#A3A3A3"/>
<path d="M32.4169 21.853L23.2969 16.893C24.7169 16.223 26.2269 15.763 27.7869 15.543L36.9069 20.503C35.3469 20.723 33.8369 21.183 32.4169 21.853Z" fill="#A8A8A8"/>
<path d="M52.2372 5.07277C59.0972 4.11277 64.6572 9.33277 64.6472 16.7428L64.5872 49.7728C64.5772 57.1828 58.9972 63.9728 52.1272 64.9428L21.5272 69.2428C14.6572 70.2028 9.1072 64.9828 9.1172 57.5728L9.1772 24.5428C9.1872 17.1328 14.7672 10.3428 21.6372 9.37278L52.2372 5.07277ZM36.8472 53.8228C45.3672 52.6228 52.2972 44.1828 52.3172 34.9928C52.3372 25.8128 45.4272 19.3028 36.9072 20.5028C28.3972 21.7028 21.4572 30.1528 21.4372 39.3328C21.4272 48.5228 28.3372 55.0128 36.8472 53.8228Z" fill="#2485D8"/>
<path d="M36.9057 23.2712C29.8057 24.2712 24.0256 31.3012 24.0156 38.9612C24.0056 46.6212 29.7557 52.0312 36.8557 51.0412C43.9557 50.0412 49.7356 43.0112 49.7556 35.3512C49.7656 27.6912 43.9957 22.2712 36.9057 23.2712ZM40.9657 43.7612L32.7656 44.9112L32.7756 40.7112L36.8756 42.6512L40.9856 39.5612L40.9657 43.7612ZM44.9057 35.0312L44.7356 35.0512L36.8656 40.8712L29.0156 37.2712L28.8557 37.2912L28.9356 37.2412L28.8557 37.2012L29.0156 37.1812L36.8856 31.3612L44.7356 34.9712L44.9057 34.9512L44.8156 35.0112L44.9057 35.0312Z" fill="#2485D8"/>
<path d="M14.89 68.1033L5.77005 63.1433C2.30005 61.2533 -0.00996766 57.3833 3.23389e-05 52.6133L9.12003 57.5733C9.11003 62.3433 11.41 66.2133 14.89 68.1033Z" fill="#154F80"/>
<path d="M36.9075 20.5019C45.4275 19.3019 52.3275 25.8119 52.3175 34.9919C52.2975 44.1819 45.3675 52.6219 36.8475 53.8219C28.3375 55.0219 21.4275 48.5219 21.4375 39.3319C21.4575 30.1419 28.3975 21.6919 36.9075 20.5019ZM36.8576 51.0419C43.9576 50.0419 49.7375 43.0119 49.7575 35.3519C49.7675 27.6919 44.0075 22.2819 36.9075 23.2719C29.8075 24.2719 24.0275 31.3019 24.0175 38.9619C23.9975 46.6219 29.7576 52.0419 36.8576 51.0419Z" fill="white"/>
<path d="M21.6356 9.37328L12.5156 4.41328L43.1156 0.113281L52.2356 5.07328L21.6356 9.37328Z" fill="#1D6BAF"/>
<path d="M9.12 57.572L0 52.612L0.0599976 19.582L9.17999 24.542L9.12 57.572Z" fill="#154E7E"/>
<path d="M9.1825 24.5408L0.0625 19.5808C0.0625 17.7608 0.402522 15.9708 1.02252 14.3008L10.1425 19.2608C9.52252 20.9308 9.1825 22.7208 9.1825 24.5408Z" fill="#154F80"/>
<path d="M10.1434 19.2609L1.02344 14.3009C1.28344 13.5809 1.60344 12.8809 1.96344 12.2109L11.0834 17.1709C10.7234 17.8409 10.4034 18.5409 10.1434 19.2609Z" fill="#165285"/>
<path d="M11.0809 17.1723L1.96094 12.2123C2.27094 11.6423 2.60095 11.0923 2.97095 10.5723L12.0909 15.5323C11.7209 16.0523 11.3909 16.6023 11.0809 17.1723Z" fill="#17558A"/>
<path d="M12.0887 15.5206L2.96875 10.5606C3.31875 10.0606 3.68875 9.59062 4.08875 9.14062L13.2087 14.1006C12.8087 14.5506 12.4387 15.0306 12.0887 15.5206Z" fill="#18588F"/>
<path d="M13.2137 14.1033L4.09375 9.14328C4.49375 8.69328 4.91377 8.26328 5.36377 7.86328L14.4838 12.8233C14.0438 13.2233 13.6137 13.6533 13.2137 14.1033Z" fill="#195B94"/>
<path d="M14.4794 12.8219L5.35938 7.86188C5.83937 7.43188 6.33938 7.03188 6.85938 6.67188L15.9794 11.6319C15.4594 11.9919 14.9594 12.3919 14.4794 12.8219Z" fill="#195E99"/>
<path d="M15.9794 11.6317L6.85938 6.67171C7.49937 6.23171 8.17933 5.83172 8.87933 5.51172L17.9993 10.4717C17.2993 10.8017 16.6294 11.1917 15.9794 11.6317Z" fill="#1A619E"/>
<path d="M18.0028 10.4719L8.88281 5.51188C10.0328 4.97188 11.2528 4.60188 12.5128 4.42188L21.6328 9.38187C20.3728 9.55187 19.1528 9.93187 18.0028 10.4719Z" fill="#1B64A3"/>
<path d="M33.8094 41.128H36.2094V34.968L36.4814 33.864L35.6494 34.824L34.0814 35.848L33.1854 34.536L37.1054 31.608H38.3694V41.128H40.7214V43H33.8094V41.128Z" fill="white"/>
</svg>
