<svg width="36" height="35" viewBox="0 0 36 35" fill="none" xmlns="http://www.w3.org/2000/svg">
<path d="M25.0197 7.96283C24.6736 7.96283 24.3353 8.06546 24.0475 8.25775C23.7597 8.45005 23.5354 8.72336 23.403 9.04313C23.2705 9.3629 23.2358 9.71477 23.3034 10.0542C23.3709 10.3937 23.5376 10.7055 23.7823 10.9503C24.027 11.195 24.3389 11.3617 24.6783 11.4292C25.0178 11.4967 25.3697 11.4621 25.6894 11.3296C26.0092 11.1972 26.2825 10.9729 26.4748 10.6851C26.6671 10.3973 26.7697 10.0589 26.7697 9.71282C26.7697 9.2487 26.5854 8.80358 26.2572 8.47539C25.929 8.1472 25.4839 7.96283 25.0197 7.96283ZM31.7281 11.492C31.6997 10.282 31.4731 9.08487 31.0572 7.94824C30.6864 6.97573 30.1093 6.09511 29.3656 5.36699C28.6434 4.61949 27.7608 4.046 26.7843 3.68991C25.6507 3.26139 24.4522 3.02959 23.2406 3.00449C21.6947 2.91699 21.1989 2.91699 17.2322 2.91699C13.2656 2.91699 12.7697 2.91699 11.2239 3.00449C10.0123 3.02959 8.81379 3.26139 7.68016 3.68991C6.70552 4.0496 5.82361 4.6226 5.09891 5.36699C4.35141 6.08913 3.77792 6.9718 3.42183 7.94824C2.99331 9.08187 2.76151 10.2803 2.73641 11.492C2.64891 13.0378 2.64891 13.5337 2.64891 17.5003C2.64891 21.467 2.64891 21.9628 2.73641 23.5087C2.76151 24.7203 2.99331 25.9188 3.42183 27.0524C3.77792 28.0288 4.35141 28.9115 5.09891 29.6337C5.82361 30.378 6.70552 30.951 7.68016 31.3107C8.81379 31.7393 10.0123 31.9711 11.2239 31.9962C12.7697 32.0837 13.2656 32.0837 17.2322 32.0837C21.1989 32.0837 21.6947 32.0837 23.2406 31.9962C24.4522 31.9711 25.6507 31.7393 26.7843 31.3107C27.7608 30.9546 28.6434 30.3812 29.3656 29.6337C30.1126 28.9083 30.6902 28.0269 31.0572 27.0524C31.4731 25.9158 31.6997 24.7186 31.7281 23.5087C31.7281 21.9628 31.8156 21.467 31.8156 17.5003C31.8156 13.5337 31.8156 13.0378 31.7281 11.492ZM29.1031 23.3337C29.0925 24.2594 28.9248 25.1766 28.6072 26.0462C28.3744 26.6808 28.0004 27.2543 27.5135 27.7232C27.0405 28.2052 26.4682 28.5785 25.8364 28.817C24.9668 29.1345 24.0496 29.3022 23.1239 29.3128C21.6656 29.3857 21.126 29.4003 17.2906 29.4003C13.4552 29.4003 12.9156 29.4003 11.4572 29.3128C10.496 29.3308 9.53894 29.1828 8.62808 28.8753C8.02401 28.6246 7.47797 28.2523 7.02391 27.7816C6.53987 27.3131 6.17056 26.7391 5.94474 26.1045C5.5887 25.2224 5.39122 24.2844 5.36141 23.3337C5.36141 21.8753 5.27391 21.3357 5.27391 17.5003C5.27391 13.6649 5.27391 13.1253 5.36141 11.667C5.36795 10.7206 5.54071 9.78275 5.87183 8.89616C6.12856 8.28061 6.52263 7.73191 7.02391 7.29199C7.46697 6.79057 8.01454 6.39234 8.62808 6.12532C9.51701 5.80456 10.4539 5.6369 11.3989 5.62949C12.8572 5.62949 13.3968 5.54199 17.2322 5.54199C21.0677 5.54199 21.6072 5.54199 23.0656 5.62949C23.9913 5.64011 24.9085 5.80777 25.7781 6.12532C26.4408 6.37128 27.0356 6.77114 27.5135 7.29199C27.9914 7.73996 28.3648 8.28764 28.6072 8.89616C28.9314 9.78419 29.0991 10.7217 29.1031 11.667C29.176 13.1253 29.1906 13.6649 29.1906 17.5003C29.1906 21.3357 29.176 21.8753 29.1031 23.3337ZM17.2322 10.0191C15.7532 10.022 14.3082 10.4632 13.0799 11.287C11.8515 12.1108 10.8949 13.2802 10.3309 14.6475C9.76687 16.0147 9.6208 17.5185 9.91111 18.9688C10.2014 20.419 10.9151 21.7507 11.9619 22.7955C13.0088 23.8403 14.3418 24.5514 15.7927 24.8389C17.2435 25.1264 18.747 24.9774 20.1131 24.4107C21.4793 23.844 22.6469 22.8851 23.4683 21.6552C24.2897 20.4252 24.7281 18.9794 24.7281 17.5003C24.73 16.5161 24.5373 15.5412 24.1611 14.6317C23.7849 13.7222 23.2326 12.8961 22.536 12.2008C21.8394 11.5055 21.0122 10.9549 20.1019 10.5804C19.1917 10.206 18.2165 10.0152 17.2322 10.0191ZM17.2322 22.3566C16.2718 22.3566 15.3329 22.0718 14.5343 21.5381C13.7356 21.0045 13.1132 20.2461 12.7457 19.3587C12.3781 18.4714 12.2819 17.4949 12.4693 16.5529C12.6567 15.6109 13.1192 14.7456 13.7984 14.0664C14.4775 13.3873 15.3428 12.9248 16.2848 12.7374C17.2269 12.55 18.2033 12.6462 19.0906 13.0137C19.978 13.3813 20.7365 14.0037 21.2701 14.8023C21.8037 15.6009 22.0885 16.5398 22.0885 17.5003C22.0885 18.1381 21.9629 18.7695 21.7188 19.3587C21.4748 19.9479 21.1171 20.4833 20.6661 20.9342C20.2152 21.3852 19.6798 21.7429 19.0906 21.9869C18.5015 22.231 17.87 22.3566 17.2322 22.3566Z" fill="white"/>
</svg>
