<svg width="35" height="35" viewBox="0 0 35 35" fill="none" xmlns="http://www.w3.org/2000/svg">
<path d="M29.1748 2.91622H4.47067C4.19297 2.91236 3.91723 2.96325 3.6592 3.06597C3.40117 3.16869 3.1659 3.32123 2.96683 3.51488C2.76776 3.70854 2.60879 3.93951 2.49899 4.19461C2.38919 4.44971 2.33072 4.72394 2.32692 5.00164V29.9975C2.33072 30.2752 2.38919 30.5494 2.49899 30.8045C2.60879 31.0596 2.76776 31.2906 2.96683 31.4842C3.1659 31.6779 3.40117 31.8304 3.6592 31.9331C3.91723 32.0359 4.19297 32.0867 4.47067 32.0829H29.1748C29.4525 32.0867 29.7283 32.0359 29.9863 31.9331C30.2443 31.8304 30.4796 31.6779 30.6787 31.4842C30.8777 31.2906 31.0367 31.0596 31.1465 30.8045C31.2563 30.5494 31.3148 30.2752 31.3186 29.9975V5.00164C31.3148 4.72394 31.2563 4.44971 31.1465 4.19461C31.0367 3.93951 30.8777 3.70854 30.6787 3.51488C30.4796 3.32123 30.2443 3.16869 29.9863 3.06597C29.7283 2.96325 29.4525 2.91236 29.1748 2.91622ZM11.1207 27.3287H6.74567V14.2037H11.1207V27.3287ZM8.93317 12.3662C8.3298 12.3662 7.75115 12.1265 7.3245 11.6999C6.89786 11.2732 6.65817 10.6946 6.65817 10.0912C6.65817 9.48785 6.89786 8.9092 7.3245 8.48255C7.75115 8.05591 8.3298 7.81622 8.93317 7.81622C9.25356 7.77988 9.57801 7.81163 9.88528 7.90938C10.1925 8.00713 10.4757 8.16868 10.7162 8.38345C10.9567 8.59823 11.1491 8.86137 11.2809 9.15567C11.4127 9.44997 11.4808 9.76878 11.4808 10.0912C11.4808 10.4137 11.4127 10.7325 11.2809 11.0268C11.1491 11.3211 10.9567 11.5842 10.7162 11.799C10.4757 12.0138 10.1925 12.1753 9.88528 12.2731C9.57801 12.3708 9.25356 12.4026 8.93317 12.3662ZM26.8998 27.3287H22.5248V20.285C22.5248 18.5204 21.8978 17.3683 20.3082 17.3683C19.8162 17.3719 19.3372 17.5262 18.9356 17.8104C18.5341 18.0946 18.2293 18.4951 18.0623 18.9579C17.9482 19.3007 17.8988 19.6616 17.9165 20.0225V27.3141H13.5415C13.5415 27.3141 13.5415 15.385 13.5415 14.1891H17.9165V16.0412C18.3139 15.3516 18.892 14.7834 19.5884 14.398C20.2848 14.0125 21.0732 13.8243 21.8686 13.8537C24.7852 13.8537 26.8998 15.735 26.8998 19.7746V27.3287Z" fill="white"/>
</svg>
