<svg width="188" height="61" viewBox="0 0 188 61" fill="none" xmlns="http://www.w3.org/2000/svg">
<path d="M1.2499 38.3064L15.0934 7.15843C15.4144 6.43617 16.1307 5.9707 16.921 5.9707H26.0229C26.8207 5.9707 27.5422 6.44484 27.8588 7.17715L43.1684 42.5949C44.1262 44.8107 41.0662 46.5119 39.6896 44.529L23.3017 20.9225C22.4183 19.65 20.486 19.8215 19.8406 21.2297L18.59 23.9583C18.0319 25.1759 18.9216 26.5624 20.261 26.5624C20.9067 26.5624 21.505 26.9012 21.8372 27.4549L24.8098 32.4092C25.6097 33.7422 24.6494 35.4382 23.0948 35.4382H15.5872C14.7535 35.4382 14.0073 35.9553 13.7145 36.7359L12.5577 39.8209C12.2649 40.6015 11.5187 41.1186 10.685 41.1186H3.07752C1.63021 41.1186 0.662088 39.6289 1.2499 38.3064Z" fill="white" stroke="black"/>
<path d="M27.5 5.5H19.5893C17.925 5.5 16.9888 3.58584 18.0106 2.27212L18.3995 1.77212C18.7784 1.28495 19.361 1 19.9782 1H31L54.9867 53.8687C55.3011 54.5615 55.1951 55.3727 54.7133 55.9615L53.0902 57.9454C52.1389 59.108 50.2933 58.8461 49.7031 57.4647L27.5 5.5Z" fill="white"/>
<path d="M27.5 5.5H19.5893C17.925 5.5 16.9888 3.58584 18.0106 2.27212L18.3995 1.77212C18.7784 1.28495 19.361 1 19.9782 1H31M27.5 5.5L49.7031 57.4647C50.2933 58.8461 52.1389 59.108 53.0902 57.9454L54.7133 55.9615C55.1951 55.3727 55.3011 54.5615 54.9867 53.8687L31 1M27.5 5.5L31 1" stroke="black"/>
<path d="M61.36 38.16C60.4133 38.16 59.5467 37.9267 58.76 37.46C57.9733 36.9933 57.3533 36.3667 56.9 35.58C56.4467 34.78 56.22 33.8867 56.22 32.9C56.22 31.9133 56.4467 31.0267 56.9 30.24C57.3667 29.4533 57.9933 28.8267 58.78 28.36C59.5667 27.8933 60.44 27.66 61.4 27.66C61.96 27.66 62.5 27.7467 63.02 27.92C63.54 28.0933 64.02 28.3467 64.46 28.68V24L66.46 23.62V38H64.48V37.02C63.6133 37.78 62.5733 38.16 61.36 38.16ZM61.62 36.42C62.2067 36.42 62.74 36.3133 63.22 36.1C63.7133 35.8867 64.1267 35.58 64.46 35.18V30.6C64.1267 30.2267 63.7133 29.9333 63.22 29.72C62.74 29.4933 62.2067 29.38 61.62 29.38C60.98 29.38 60.4 29.5333 59.88 29.84C59.36 30.1467 58.9467 30.5667 58.64 31.1C58.3333 31.62 58.18 32.2133 58.18 32.88C58.18 33.5467 58.3333 34.1467 58.64 34.68C58.9467 35.2133 59.36 35.64 59.88 35.96C60.4 36.2667 60.98 36.42 61.62 36.42ZM73.7084 38.18C72.7084 38.18 71.8018 37.9467 70.9884 37.48C70.1884 37.0133 69.5484 36.38 69.0684 35.58C68.6018 34.78 68.3684 33.8867 68.3684 32.9C68.3684 31.9267 68.5951 31.0467 69.0484 30.26C69.5018 29.46 70.1151 28.8267 70.8884 28.36C71.6618 27.88 72.5218 27.64 73.4684 27.64C74.4151 27.64 75.2551 27.88 75.9884 28.36C76.7218 28.8267 77.3018 29.4667 77.7284 30.28C78.1684 31.08 78.3884 31.9867 78.3884 33V33.56H70.3684C70.4751 34.12 70.6818 34.62 70.9884 35.06C71.3084 35.5 71.7084 35.8467 72.1884 36.1C72.6818 36.3533 73.2151 36.48 73.7884 36.48C74.2818 36.48 74.7551 36.4067 75.2084 36.26C75.6751 36.1 76.0618 35.8733 76.3684 35.58L77.6484 36.84C77.0484 37.2933 76.4284 37.6333 75.7884 37.86C75.1618 38.0733 74.4684 38.18 73.7084 38.18ZM70.3884 32.06H76.4084C76.3284 31.5267 76.1418 31.06 75.8484 30.66C75.5684 30.2467 75.2151 29.9267 74.7884 29.7C74.3751 29.46 73.9218 29.34 73.4284 29.34C72.9218 29.34 72.4551 29.4533 72.0284 29.68C71.6018 29.9067 71.2418 30.2267 70.9484 30.64C70.6684 31.04 70.4818 31.5133 70.3884 32.06ZM81.998 38L79.158 27.82H81.098L83.078 35.3L85.398 27.82H87.118L89.438 35.3L91.418 27.82H93.298L90.438 38H88.518L86.238 30.54L83.938 38H81.998ZM99.3716 38.2C98.3849 38.2 97.4849 37.9667 96.6716 37.5C95.8716 37.0333 95.2382 36.4 94.7716 35.6C94.3049 34.8 94.0716 33.9067 94.0716 32.92C94.0716 31.9333 94.3049 31.04 94.7716 30.24C95.2382 29.44 95.8716 28.8067 96.6716 28.34C97.4849 27.86 98.3849 27.62 99.3716 27.62C100.372 27.62 101.272 27.86 102.072 28.34C102.872 28.8067 103.505 29.44 103.972 30.24C104.438 31.04 104.672 31.9333 104.672 32.92C104.672 33.9067 104.438 34.8 103.972 35.6C103.505 36.4 102.872 37.0333 102.072 37.5C101.272 37.9667 100.372 38.2 99.3716 38.2ZM99.3716 36.44C99.9982 36.44 100.565 36.2867 101.072 35.98C101.578 35.66 101.978 35.2333 102.272 34.7C102.565 34.1667 102.712 33.5667 102.712 32.9C102.712 32.2467 102.558 31.66 102.252 31.14C101.958 30.6067 101.558 30.18 101.052 29.86C100.558 29.54 99.9982 29.38 99.3716 29.38C98.7449 29.38 98.1782 29.54 97.6716 29.86C97.1782 30.18 96.7782 30.6067 96.4716 31.14C96.1782 31.66 96.0316 32.2467 96.0316 32.9C96.0316 33.5667 96.1782 34.1667 96.4716 34.7C96.7649 35.2333 97.1649 35.66 97.6716 35.98C98.1782 36.2867 98.7449 36.44 99.3716 36.44ZM106.563 38V24L108.563 23.62V38H106.563ZM115.798 38.18C114.798 38.18 113.892 37.9467 113.078 37.48C112.278 37.0133 111.638 36.38 111.158 35.58C110.692 34.78 110.458 33.8867 110.458 32.9C110.458 31.9267 110.685 31.0467 111.138 30.26C111.592 29.46 112.205 28.8267 112.978 28.36C113.752 27.88 114.612 27.64 115.558 27.64C116.505 27.64 117.345 27.88 118.078 28.36C118.812 28.8267 119.392 29.4667 119.818 30.28C120.258 31.08 120.478 31.9867 120.478 33V33.56H112.458C112.565 34.12 112.772 34.62 113.078 35.06C113.398 35.5 113.798 35.8467 114.278 36.1C114.772 36.3533 115.305 36.48 115.878 36.48C116.372 36.48 116.845 36.4067 117.298 36.26C117.765 36.1 118.152 35.8733 118.458 35.58L119.738 36.84C119.138 37.2933 118.518 37.6333 117.878 37.86C117.252 38.0733 116.558 38.18 115.798 38.18ZM112.478 32.06H118.498C118.418 31.5267 118.232 31.06 117.938 30.66C117.658 30.2467 117.305 29.9267 116.878 29.7C116.465 29.46 116.012 29.34 115.518 29.34C115.012 29.34 114.545 29.4533 114.118 29.68C113.692 29.9067 113.332 30.2267 113.038 30.64C112.758 31.04 112.572 31.5133 112.478 32.06ZM123.098 38.14C122.751 38.14 122.451 38.02 122.198 37.78C121.958 37.5267 121.838 37.2267 121.838 36.88C121.838 36.5333 121.958 36.24 122.198 36C122.451 35.7467 122.751 35.62 123.098 35.62C123.444 35.62 123.738 35.7467 123.978 36C124.231 36.24 124.358 36.5333 124.358 36.88C124.358 37.2267 124.231 37.5267 123.978 37.78C123.738 38.02 123.444 38.14 123.098 38.14ZM130.95 38.16C130.003 38.16 129.137 37.9267 128.35 37.46C127.563 36.9933 126.943 36.3667 126.49 35.58C126.037 34.78 125.81 33.8867 125.81 32.9C125.81 31.9133 126.037 31.0267 126.49 30.24C126.957 29.4533 127.583 28.8267 128.37 28.36C129.157 27.8933 130.03 27.66 130.99 27.66C131.55 27.66 132.09 27.7467 132.61 27.92C133.13 28.0933 133.61 28.3467 134.05 28.68V24L136.05 23.62V38H134.07V37.02C133.203 37.78 132.163 38.16 130.95 38.16ZM131.21 36.42C131.797 36.42 132.33 36.3133 132.81 36.1C133.303 35.8867 133.717 35.58 134.05 35.18V30.6C133.717 30.2267 133.303 29.9333 132.81 29.72C132.33 29.4933 131.797 29.38 131.21 29.38C130.57 29.38 129.99 29.5333 129.47 29.84C128.95 30.1467 128.537 30.5667 128.23 31.1C127.923 31.62 127.77 32.2133 127.77 32.88C127.77 33.5467 127.923 34.1467 128.23 34.68C128.537 35.2133 128.95 35.64 129.47 35.96C129.99 36.2667 130.57 36.42 131.21 36.42ZM143.298 38.18C142.298 38.18 141.392 37.9467 140.578 37.48C139.778 37.0133 139.138 36.38 138.658 35.58C138.192 34.78 137.958 33.8867 137.958 32.9C137.958 31.9267 138.185 31.0467 138.638 30.26C139.092 29.46 139.705 28.8267 140.478 28.36C141.252 27.88 142.112 27.64 143.058 27.64C144.005 27.64 144.845 27.88 145.578 28.36C146.312 28.8267 146.892 29.4667 147.318 30.28C147.758 31.08 147.978 31.9867 147.978 33V33.56H139.958C140.065 34.12 140.272 34.62 140.578 35.06C140.898 35.5 141.298 35.8467 141.778 36.1C142.272 36.3533 142.805 36.48 143.378 36.48C143.872 36.48 144.345 36.4067 144.798 36.26C145.265 36.1 145.652 35.8733 145.958 35.58L147.238 36.84C146.638 37.2933 146.018 37.6333 145.378 37.86C144.752 38.0733 144.058 38.18 143.298 38.18ZM139.978 32.06H145.998C145.918 31.5267 145.732 31.06 145.438 30.66C145.158 30.2467 144.805 29.9267 144.378 29.7C143.965 29.46 143.512 29.34 143.018 29.34C142.512 29.34 142.045 29.4533 141.618 29.68C141.192 29.9067 140.832 30.2267 140.538 30.64C140.258 31.04 140.072 31.5133 139.978 32.06ZM153.481 38.2C152.601 38.2 151.774 38.0733 151.001 37.82C150.241 37.5533 149.581 37.18 149.021 36.7L150.121 35.38C150.641 35.7933 151.174 36.1133 151.721 36.34C152.281 36.5533 152.847 36.66 153.421 36.66C154.141 36.66 154.727 36.52 155.181 36.24C155.634 35.96 155.861 35.5933 155.861 35.14C155.861 34.7667 155.727 34.4733 155.461 34.26C155.194 34.0467 154.781 33.9 154.221 33.82L152.381 33.56C151.367 33.4133 150.607 33.1 150.101 32.62C149.594 32.14 149.341 31.5 149.341 30.7C149.341 30.0867 149.507 29.5533 149.841 29.1C150.174 28.6333 150.641 28.2733 151.241 28.02C151.841 27.7533 152.541 27.62 153.341 27.62C154.074 27.62 154.781 27.7267 155.461 27.94C156.141 28.1533 156.794 28.4867 157.421 28.94L156.401 30.26C155.841 29.8867 155.294 29.6133 154.761 29.44C154.241 29.2667 153.714 29.18 153.181 29.18C152.567 29.18 152.074 29.3133 151.701 29.58C151.327 29.8333 151.141 30.1667 151.141 30.58C151.141 30.9533 151.267 31.2467 151.521 31.46C151.787 31.66 152.221 31.8 152.821 31.88L154.661 32.14C155.674 32.2867 156.441 32.6 156.961 33.08C157.481 33.5467 157.741 34.18 157.741 34.98C157.741 35.5933 157.554 36.1467 157.181 36.64C156.807 37.12 156.301 37.5 155.661 37.78C155.021 38.06 154.294 38.2 153.481 38.2ZM159.278 38V27.82H161.278V38H159.278ZM160.278 26.18C159.944 26.18 159.658 26.06 159.418 25.82C159.178 25.5667 159.058 25.2733 159.058 24.94C159.058 24.5933 159.178 24.3067 159.418 24.08C159.658 23.84 159.944 23.72 160.278 23.72C160.624 23.72 160.918 23.84 161.158 24.08C161.398 24.3067 161.518 24.5933 161.518 24.94C161.518 25.2733 161.398 25.5667 161.158 25.82C160.918 26.06 160.624 26.18 160.278 26.18ZM168.673 42.28C167.926 42.28 167.2 42.1933 166.493 42.02C165.786 41.8467 165.146 41.6 164.573 41.28L165.333 39.72C165.933 40.0267 166.493 40.2467 167.013 40.38C167.546 40.5267 168.08 40.6 168.613 40.6C169.506 40.6 170.18 40.3933 170.633 39.98C171.1 39.5667 171.333 38.96 171.333 38.16V37C170.44 37.7067 169.42 38.06 168.273 38.06C167.34 38.06 166.48 37.8333 165.693 37.38C164.92 36.9133 164.306 36.2867 163.853 35.5C163.4 34.7 163.173 33.82 163.173 32.86C163.173 31.8867 163.4 31.0067 163.853 30.22C164.32 29.42 164.94 28.7933 165.713 28.34C166.5 27.8733 167.38 27.64 168.353 27.64C168.9 27.64 169.426 27.7333 169.933 27.92C170.453 28.0933 170.926 28.3467 171.353 28.68V27.82H173.333V38.16C173.333 39.48 172.926 40.4933 172.113 41.2C171.313 41.92 170.166 42.28 168.673 42.28ZM168.533 36.34C169.12 36.34 169.653 36.24 170.133 36.04C170.613 35.8267 171.013 35.5267 171.333 35.14V30.58C171.013 30.2067 170.606 29.9133 170.113 29.7C169.633 29.4867 169.106 29.38 168.533 29.38C167.893 29.38 167.313 29.5333 166.793 29.84C166.286 30.1467 165.88 30.5667 165.573 31.1C165.28 31.62 165.133 32.2067 165.133 32.86C165.133 33.5133 165.28 34.1067 165.573 34.64C165.88 35.16 166.286 35.5733 166.793 35.88C167.313 36.1867 167.893 36.34 168.533 36.34ZM175.684 38V27.82H177.684V28.86C178.471 28.0333 179.491 27.62 180.744 27.62C181.531 27.62 182.217 27.7867 182.804 28.12C183.404 28.4533 183.871 28.92 184.204 29.52C184.551 30.12 184.724 30.8133 184.724 31.6V38H182.724V31.94C182.724 31.14 182.497 30.5133 182.044 30.06C181.604 29.5933 180.984 29.36 180.184 29.36C179.651 29.36 179.171 29.4733 178.744 29.7C178.317 29.9267 177.964 30.2533 177.684 30.68V38H175.684Z" fill="white"/>
</svg>
