<svg width="30" height="34" viewBox="0 0 30 34" fill="none" xmlns="http://www.w3.org/2000/svg">
<path d="M16.146 7.028C16.146 8.228 15.906 9.44 15.426 10.664C14.946 11.888 14.334 13.088 13.59 14.264C12.87 15.416 12.054 16.544 11.142 17.648C10.254 18.752 9.37795 19.772 8.51395 20.708L6.46195 22.184V22.364L9.23395 21.788H16.686V26H0.233953V23.48C0.857953 22.856 1.55395 22.16 2.32195 21.392C3.11395 20.6 3.90595 19.76 4.69795 18.872C5.48995 17.984 6.25795 17.072 7.00195 16.136C7.76995 15.176 8.44195 14.228 9.01795 13.292C9.59395 12.356 10.062 11.444 10.422 10.556C10.782 9.644 10.962 8.804 10.962 8.036C10.962 7.124 10.686 6.356 10.134 5.732C9.58195 5.084 8.63395 4.76 7.28995 4.76C6.44995 4.76 5.59795 4.94 4.73395 5.3C3.86995 5.636 3.12595 6.08 2.50195 6.632L0.413953 3.032C1.44595 2.264 2.59795 1.616 3.86995 1.088C5.14195 0.559999 6.66595 0.295998 8.44195 0.295998C9.54595 0.295998 10.566 0.439999 11.502 0.727999C12.462 1.016 13.278 1.436 13.95 1.988C14.646 2.54 15.186 3.248 15.57 4.112C15.954 4.952 16.146 5.924 16.146 7.028ZM23.1235 0.368C24.3235 1.52 25.3315 2.792 26.1475 4.184C26.9875 5.552 27.6595 6.968 28.1635 8.432C28.6915 9.872 29.0635 11.336 29.2795 12.824C29.5195 14.288 29.6395 15.692 29.6395 17.036C29.6395 18.356 29.5195 19.748 29.2795 21.212C29.0635 22.676 28.6915 24.152 28.1635 25.64C27.6595 27.104 26.9755 28.544 26.1115 29.96C25.2715 31.376 24.2395 32.696 23.0155 33.92L19.7755 31.688C20.7355 30.488 21.5275 29.276 22.1515 28.052C22.7755 26.852 23.2675 25.64 23.6275 24.416C23.9875 23.192 24.2395 21.968 24.3835 20.744C24.5275 19.496 24.5995 18.26 24.5995 17.036C24.5995 15.884 24.5035 14.684 24.3115 13.436C24.1435 12.164 23.8555 10.904 23.4475 9.656C23.0635 8.408 22.5595 7.196 21.9355 6.02C21.3355 4.82 20.6035 3.704 19.7395 2.672L23.1235 0.368Z" fill="#FEB214"/>
</svg>
