<svg width="30" height="34" viewBox="0 0 30 34" fill="none" xmlns="http://www.w3.org/2000/svg">
<path d="M7.03795 22.292C7.85395 22.292 8.56195 22.196 9.16195 22.004C9.78595 21.788 10.302 21.5 10.71 21.14C11.118 20.78 11.43 20.372 11.646 19.916C11.862 19.436 11.97 18.944 11.97 18.44C11.97 17.144 11.526 16.184 10.638 15.56C9.77395 14.936 8.36995 14.624 6.42595 14.624H3.58195V11.96L8.22595 6.272L10.494 4.616L7.39795 5.012H0.881953V0.799998H15.858V3.5L10.458 10.124L8.69395 11.096V11.276L10.35 11.06C11.238 11.132 12.078 11.336 12.87 11.672C13.686 12.008 14.394 12.464 14.994 13.04C15.618 13.616 16.11 14.336 16.47 15.2C16.83 16.04 17.01 17.024 17.01 18.152C17.01 19.568 16.746 20.804 16.218 21.86C15.714 22.892 15.018 23.756 14.13 24.452C13.242 25.148 12.198 25.664 10.998 26C9.79795 26.336 8.50195 26.504 7.10995 26.504C6.53395 26.504 5.94595 26.48 5.34595 26.432C4.74595 26.384 4.15795 26.3 3.58195 26.18C3.00595 26.084 2.45395 25.976 1.92595 25.856C1.42195 25.712 0.977953 25.544 0.593953 25.352L1.96195 21.176C2.63395 21.488 3.38995 21.752 4.22995 21.968C5.06995 22.184 6.00595 22.292 7.03795 22.292ZM23.1235 0.368C24.3235 1.52 25.3315 2.792 26.1475 4.184C26.9875 5.552 27.6595 6.968 28.1635 8.432C28.6915 9.872 29.0635 11.336 29.2795 12.824C29.5195 14.288 29.6395 15.692 29.6395 17.036C29.6395 18.356 29.5195 19.748 29.2795 21.212C29.0635 22.676 28.6915 24.152 28.1635 25.64C27.6595 27.104 26.9755 28.544 26.1115 29.96C25.2715 31.376 24.2395 32.696 23.0155 33.92L19.7755 31.688C20.7355 30.488 21.5275 29.276 22.1515 28.052C22.7755 26.852 23.2675 25.64 23.6275 24.416C23.9875 23.192 24.2395 21.968 24.3835 20.744C24.5275 19.496 24.5995 18.26 24.5995 17.036C24.5995 15.884 24.5035 14.684 24.3115 13.436C24.1435 12.164 23.8555 10.904 23.4475 9.656C23.0635 8.408 22.5595 7.196 21.9355 6.02C21.3355 4.82 20.6035 3.704 19.7395 2.672L23.1235 0.368Z" fill="#DE5F8B"/>
</svg>
