<svg width="38" height="41" viewBox="0 0 38 41" fill="none" xmlns="http://www.w3.org/2000/svg">
<path fill-rule="evenodd" clip-rule="evenodd" d="M18.9939 5.17773C14.5445 5.17773 10.9375 8.7847 10.9375 13.2341V14.1217C10.1216 14.2592 9.5 14.969 9.5 15.824V17.8381C9.5 18.7084 10.144 19.4283 10.9814 19.5472C11.2788 22.3957 13.0604 24.8027 15.5391 25.9811V28.649C9.4402 29.0225 4.60938 34.0871 4.60938 40.2799H33.3822C33.3822 34.0844 28.5472 29.0181 22.4445 28.6486V25.9831C24.9256 24.8053 26.7091 22.397 27.0064 19.5467C27.842 19.4261 28.484 18.7071 28.484 17.8381V15.824C28.484 14.9703 27.8643 14.2614 27.0503 14.1224V13.2341C27.0503 8.7847 23.4433 5.17773 18.9939 5.17773Z" fill="#D0C6AC"/>
<mask id="mask0_4157_5798" style="mask-type:luminance" maskUnits="userSpaceOnUse" x="4" y="5" width="30" height="36">
<path fill-rule="evenodd" clip-rule="evenodd" d="M18.9939 5.17773C14.5445 5.17773 10.9375 8.7847 10.9375 13.2341V14.1217C10.1216 14.2592 9.5 14.969 9.5 15.824V17.8381C9.5 18.7084 10.144 19.4283 10.9814 19.5472C11.2788 22.3957 13.0604 24.8027 15.5391 25.9811V28.649C9.4402 29.0225 4.60938 34.0871 4.60938 40.2799H33.3822C33.3822 34.0844 28.5472 29.0181 22.4445 28.6486V25.9831C24.9256 24.8053 26.7091 22.397 27.0064 19.5467C27.842 19.4261 28.484 18.7071 28.484 17.8381V15.824C28.484 14.9703 27.8643 14.2614 27.0503 14.1224V13.2341C27.0503 8.7847 23.4433 5.17773 18.9939 5.17773Z" fill="white"/>
</mask>
<g mask="url(#mask0_4157_5798)">
<rect x="0.0078125" y="5.17773" width="37.9801" height="35.1029" fill="#EDB98A"/>
<path fill-rule="evenodd" clip-rule="evenodd" d="M10.9375 18.7031V19.8533C10.9375 24.3027 14.5445 27.9097 18.9939 27.9097C23.4433 27.9097 27.0503 24.3027 27.0503 19.8533V18.7031C27.0503 23.1526 23.4433 26.7595 18.9939 26.7595C14.5445 26.7595 10.9375 23.1525 10.9375 18.7031Z" fill="black" fill-opacity="0.1"/>
</g>
<path fill-rule="evenodd" clip-rule="evenodd" d="M26.1831 29.6822C26.1831 32.0245 22.9948 33.9234 19.0619 33.9234C15.1289 33.9234 11.9406 32.0245 11.9406 29.6822C11.9406 29.6048 11.9441 29.5279 11.9509 29.4515C7.6466 31.1617 4.60352 35.3646 4.60352 40.2782H33.3763C33.3763 35.4213 30.4031 31.2589 26.1775 29.5117C26.1812 29.5683 26.1831 29.6251 26.1831 29.6822Z" fill="#E6E6E6"/>
<mask id="mask1_4157_5798" style="mask-type:luminance" maskUnits="userSpaceOnUse" x="4" y="29" width="30" height="12">
<path fill-rule="evenodd" clip-rule="evenodd" d="M26.1831 29.6822C26.1831 32.0245 22.9948 33.9234 19.0619 33.9234C15.1289 33.9234 11.9406 32.0245 11.9406 29.6822C11.9406 29.6048 11.9441 29.5279 11.9509 29.4515C7.6466 31.1617 4.60352 35.3646 4.60352 40.2782H33.3763C33.3763 35.4213 30.4031 31.2589 26.1775 29.5117C26.1812 29.5683 26.1831 29.6251 26.1831 29.6822Z" fill="white"/>
</mask>
<g mask="url(#mask1_4157_5798)">
<rect y="24.4531" width="37.9801" height="15.8251" fill="#E6E6E6"/>
</g>
<rect width="15.5373" height="6.33002" transform="translate(11.2188 19.2812)" fill="#D08B5B"/>
<path fill-rule="evenodd" clip-rule="evenodd" d="M15.3909 21.5268C15.5938 22.9111 17.1262 24.0288 18.9875 24.0288C20.8532 24.0288 22.3894 22.9042 22.5841 21.4017C22.5987 21.3442 22.5518 21.1515 22.2714 21.1515C19.3959 21.1515 17.2237 21.1515 15.7037 21.1515C15.4461 21.1515 15.3723 21.3299 15.3909 21.5268Z" fill="black" fill-opacity="0.7"/>
<mask id="mask2_4157_5798" style="mask-type:luminance" maskUnits="userSpaceOnUse" x="15" y="21" width="8" height="4">
<path fill-rule="evenodd" clip-rule="evenodd" d="M15.3907 21.5268C15.5935 22.9111 17.126 24.0288 18.9873 24.0288C20.8529 24.0288 22.3891 22.9042 22.5839 21.4017C22.5984 21.3442 22.5516 21.1515 22.2711 21.1515C19.3956 21.1515 17.2234 21.1515 15.7034 21.1515C15.4458 21.1515 15.372 21.3299 15.3907 21.5268Z" fill="white"/>
</mask>
<g mask="url(#mask2_4157_5798)">
<rect x="16.8293" y="19.569" width="4.45979" height="2.30183" rx="1.15091" fill="white"/>
</g>
<path fill-rule="evenodd" clip-rule="evenodd" d="M20.7136 22.6718C20.7137 22.6686 20.7138 22.6653 20.7138 22.6621C20.7138 22.384 20.2951 22.1585 19.7786 22.1585C19.4894 22.1585 19.2308 22.2293 19.0593 22.3403C18.8877 22.2293 18.6292 22.1585 18.3399 22.1585C17.8235 22.1585 17.4048 22.384 17.4048 22.6621L17.405 22.673L17.4049 22.6807V23.9568C17.4049 24.8706 18.1456 25.6113 19.0593 25.6113C19.973 25.6113 20.7138 24.8706 20.7138 23.9568V22.6807C20.7138 22.6777 20.7137 22.6748 20.7136 22.6718Z" fill="#FF4F6D"/>
<path fill-rule="evenodd" clip-rule="evenodd" d="M17.0862 18.5275C17.0862 19.1467 17.8392 19.6487 18.768 19.6487C19.6968 19.6487 20.4498 19.1467 20.4498 18.5275" fill="black" fill-opacity="0.16"/>
<path fill-rule="evenodd" clip-rule="evenodd" d="M15.2455 16.9735C15.7222 16.9735 16.1087 16.587 16.1087 16.1103C16.1087 15.6336 15.7222 15.2471 15.2455 15.2471C14.7688 15.2471 14.3823 15.6336 14.3823 16.1103C14.3823 16.587 14.7688 16.9735 15.2455 16.9735Z" fill="black" fill-opacity="0.6"/>
<path fill-rule="evenodd" clip-rule="evenodd" d="M22.7265 16.9735C23.2032 16.9735 23.5897 16.587 23.5897 16.1103C23.5897 15.6336 23.2032 15.2471 22.7265 15.2471C22.2497 15.2471 21.8633 15.6336 21.8633 16.1103C21.8633 16.587 22.2497 16.9735 22.7265 16.9735Z" fill="black" fill-opacity="0.6"/>
<path d="M13.1783 14.2654C13.7415 13.4729 15.2856 13.0285 16.6156 13.3551C16.7699 13.393 16.9258 13.2986 16.9637 13.1443C17.0015 12.99 16.9072 12.8341 16.7528 12.7963C15.2082 12.4169 13.4202 12.9315 12.7092 13.932C12.6172 14.0616 12.6475 14.2412 12.7771 14.3332C12.9066 14.4253 13.0862 14.3949 13.1783 14.2654Z" fill="black" fill-opacity="0.6"/>
<path d="M24.7939 14.2654C24.2307 13.4729 22.6866 13.0285 21.3566 13.3551C21.2022 13.393 21.0464 13.2986 21.0085 13.1443C20.9706 12.99 21.065 12.8341 21.2193 12.7963C22.7639 12.4169 24.5519 12.9315 25.2629 13.932C25.355 14.0616 25.3246 14.2412 25.1951 14.3332C25.0656 14.4253 24.8859 14.3949 24.7939 14.2654Z" fill="black" fill-opacity="0.6"/>
<mask id="mask3_4157_5798" style="mask-type:luminance" maskUnits="userSpaceOnUse" x="0" y="0" width="38" height="41">
<rect width="37.9801" height="40.282" fill="white"/>
</mask>
<g mask="url(#mask3_4157_5798)">
<path fill-rule="evenodd" clip-rule="evenodd" d="M9.35374 11.1266C9.25957 11.6716 9.2105 12.232 9.2105 12.8039V19.7094C9.2105 19.8493 9.21343 19.9885 9.21925 20.1269C9.2162 20.2455 9.21326 20.3469 9.21046 20.4287C9.23026 20.9582 8.94336 22.1256 8.5862 23.5789C8.02844 25.8486 7.29932 28.8155 7.29932 31.1388C7.29932 33.0113 7.58469 34.4254 7.85909 35.7852C8.14318 37.1929 8.41551 38.5424 8.34727 40.282H15.1089C15.1089 40.282 14.9724 38.3816 14.7531 36.4902C16.199 37.9584 18.0367 38.9118 20.3711 38.9118C30.5205 38.9118 31.5383 31.168 31.5383 29.5271C31.5383 28.6582 30.9165 27.9611 30.3317 27.3057C29.8122 26.7233 29.3219 26.1737 29.3232 25.5655C29.3245 24.9391 29.4713 24.5016 29.6224 24.0515C29.7831 23.5728 29.9485 23.08 29.9485 22.3306C29.9485 21.4934 29.7425 21.2501 29.53 20.9991C29.3734 20.8143 29.2134 20.6253 29.1294 20.192C29.0026 19.5379 28.8613 18.1311 28.776 17.2029V12.8039C28.776 7.40104 24.3961 3.02115 18.9933 3.02115C14.1756 3.02115 10.1713 6.50361 9.36039 11.0885C9.35639 11.0812 9.35432 11.0775 9.35432 11.0775C9.35432 11.0775 9.35412 11.0944 9.35374 11.1266ZM18.9933 7.62481C14.6233 7.62481 11.0808 11.1674 11.0808 15.5373V18.7023C11.0808 23.0723 14.6233 26.6149 18.9933 26.6149C23.3633 26.6149 26.9058 23.0723 26.9058 18.7023V15.5373C26.9058 11.1674 23.3633 7.62481 18.9933 7.62481Z" fill="#3B6BAD"/>
<mask id="mask4_4157_5798" style="mask-type:luminance" maskUnits="userSpaceOnUse" x="7" y="3" width="25" height="38">
<path fill-rule="evenodd" clip-rule="evenodd" d="M9.35374 11.1261C9.25952 11.6712 9.21042 12.2318 9.21042 12.8039V19.7094C9.21042 19.8497 9.21337 19.9893 9.21922 20.1281C9.21618 20.2462 9.21326 20.3472 9.21046 20.4287C9.23026 20.9582 8.94336 22.1256 8.5862 23.5789C8.02844 25.8486 7.29932 28.8155 7.29932 31.1388C7.29932 33.0113 7.58469 34.4254 7.85909 35.7852C8.14318 37.1929 8.41551 38.5424 8.34727 40.282H15.1089C15.1089 40.282 14.9724 38.3816 14.7531 36.4902C16.199 37.9584 18.0367 38.9118 20.3711 38.9118C30.5205 38.9118 31.5383 31.168 31.5383 29.5271C31.5383 28.6582 30.9165 27.9611 30.3317 27.3057C29.8122 26.7233 29.3219 26.1737 29.3232 25.5655C29.3245 24.9391 29.4713 24.5016 29.6224 24.0515C29.7831 23.5728 29.9485 23.08 29.9485 22.3306C29.9485 21.4934 29.7425 21.2501 29.53 20.9991C29.3734 20.8143 29.2134 20.6253 29.1294 20.192C29.0025 19.5377 28.8612 18.1303 28.7759 17.2021V12.8039C28.7759 7.40104 24.396 3.02115 18.9932 3.02115C14.1756 3.02115 10.1713 6.50356 9.36033 11.0884C9.35637 11.0812 9.35432 11.0775 9.35432 11.0775C9.35432 11.0775 9.35412 11.0942 9.35374 11.1261ZM18.9932 7.62481C14.6232 7.62481 11.0807 11.1674 11.0807 15.5373V18.7023C11.0807 23.0723 14.6232 26.6149 18.9932 26.6149C23.3632 26.6149 26.9057 23.0723 26.9057 18.7023V15.5373C26.9057 11.1674 23.3632 7.62481 18.9932 7.62481Z" fill="white"/>
</mask>
<g mask="url(#mask4_4157_5798)">
<rect x="0.00317383" width="37.9801" height="40.282" fill="#25557C"/>
<path fill-rule="evenodd" clip-rule="evenodd" d="M10.2283 15.1001C10.4562 10.4565 14.2933 6.76164 18.9933 6.76164C23.6933 6.76164 27.5303 10.4564 27.7583 15.0998C27.8598 14.5657 27.9129 14.0147 27.9129 13.4513C27.9129 8.56489 23.9195 4.60367 18.9933 4.60367C14.0672 4.60367 10.0737 8.56489 10.0737 13.4513C10.0737 14.0148 10.1268 14.5659 10.2283 15.1001Z" fill="white" fill-opacity="0.5"/>
<path opacity="0.9" fill-rule="evenodd" clip-rule="evenodd" d="M11.0846 15.288C11.082 15.3708 11.0807 15.4539 11.0807 15.5373V18.7024C11.0807 23.0723 14.6233 26.6149 18.9933 26.6149C23.3632 26.6149 26.9058 23.0723 26.9058 18.7023V15.5373C26.9058 15.4543 26.9045 15.3716 26.902 15.2892C26.9988 15.7886 27.0496 16.3044 27.0496 16.8321V19.7094C27.0496 24.1588 23.4426 27.7658 18.9932 27.7658C14.5437 27.7658 10.9368 24.1588 10.9368 19.7094V16.8321C10.9368 16.304 10.9876 15.7877 11.0846 15.288ZM26.7691 27.9303C26.1378 28.9234 24.1933 29.8956 21.7848 30.3203C19.3764 30.7449 17.2167 30.4965 16.2838 29.7793C16.287 29.8167 16.2919 29.8541 16.2984 29.8913C16.5444 31.2861 19.0932 32.0025 21.9914 31.4915C24.8896 30.9805 27.0397 29.4355 26.7937 28.0407C26.7871 28.0034 26.7789 27.9666 26.7691 27.9303ZM28.4394 30.1377C28.0593 31.5184 26.2994 33.0456 23.8995 33.9191C21.4996 34.7926 19.1698 34.7539 17.9911 33.9406C18.0051 33.9891 18.0207 34.0373 18.0381 34.0851C18.6893 35.8743 21.5584 36.4727 24.4463 35.4216C27.3343 34.3704 29.1475 32.0679 28.4963 30.2787C28.4789 30.2308 28.4599 30.1838 28.4394 30.1377Z" fill="black" fill-opacity="0.16"/>
</g>
</g>
</svg>
